<?xml version="1.0" encoding="utf-8"?>
<!-- Generator: Adobe Illustrator 27.5.0, SVG Export Plug-In . SVG Version: 6.00 Build 0)  -->
<svg version="1.1" id="Layer_1" xmlns="http://www.w3.org/2000/svg" xmlns:xlink="http://www.w3.org/1999/xlink" x="0px" y="0px"
	 viewBox="0 0 849.552 400" style="enable-background:new 0 0 849.552 400;" xml:space="preserve">
<g>
	<rect x="0" style="fill:#FFFFFF;" width="849.552" height="400"/>
</g>
<g>
	<g>
		<path style="fill:#E2A89A;" d="M284.16,140.96h-94.53c-2.892,0-5.236-2.344-5.236-5.236V90.349c0-2.892,2.344-5.236,5.236-5.236
			h94.53c2.892,0,5.236,2.344,5.236,5.236v45.375C289.396,138.616,287.052,140.96,284.16,140.96z"/>
	</g>
	<g>
		<path style="fill:#D88680;" d="M279.116,136.191h-84.754c-2.488,0-4.505-2.017-4.505-4.505V94.388
			c0-2.488,2.017-4.505,4.505-4.505h84.754c2.488,0,4.505,2.017,4.505,4.505v37.298
			C283.621,134.174,281.604,136.191,279.116,136.191z"/>
	</g>
	<g>
		<path style="fill:#FFFFFF;" d="M190.89,116.752c-0.165,0-0.326-0.082-0.422-0.23c-0.148-0.233-0.081-0.542,0.152-0.691
			l41.232-26.37c0.233-0.148,0.541-0.08,0.691,0.152c0.148,0.233,0.081,0.542-0.152,0.691l-41.232,26.37
			C191.076,116.727,190.982,116.752,190.89,116.752z"/>
	</g>
	<g>
		<path style="fill:#FFFFFF;" d="M189.857,128.213c-0.162,0-0.32-0.078-0.417-0.223c-0.153-0.23-0.09-0.54,0.14-0.693l56.887-37.831
			c0.229-0.153,0.539-0.091,0.693,0.14c0.153,0.23,0.09,0.54-0.14,0.693l-56.887,37.831
			C190.048,128.186,189.952,128.213,189.857,128.213z"/>
	</g>
</g>
<g>
	<rect x="0" y="331.688" style="fill:#EEECF1;" width="849.552" height="68.312"/>
</g>
<g style="opacity:0.54;">
	<ellipse style="fill:#E1DAE5;" cx="429.552" cy="346.48" rx="420" ry="6.601"/>
</g>
<g style="opacity:0.54;">
	<ellipse style="fill:#E1DAE5;" cx="270.793" cy="363.75" rx="138.392" ry="9.556"/>
</g>
<g>
	<g>
		<path style="fill:#EEECF1;" d="M258.497,343.708H149.865c-2.822,0-5.11-2.288-5.11-5.11v-65.922c0-2.822,2.288-5.11,5.11-5.11
			h108.632c2.822,0,5.11,2.288,5.11,5.11v65.922C263.606,341.42,261.319,343.708,258.497,343.708z"/>
	</g>
	<g>
		<path style="fill:#D0C8D6;" d="M262.528,292.794H144.755c-0.276,0-0.5-0.224-0.5-0.5c0-0.276,0.224-0.5,0.5-0.5h117.773
			c0.276,0,0.5,0.224,0.5,0.5C263.028,292.57,262.805,292.794,262.528,292.794z"/>
	</g>
	<g>
		<path style="fill:#D0C8D6;" d="M262.528,318.636H144.755c-0.276,0-0.5-0.224-0.5-0.5c0-0.276,0.224-0.5,0.5-0.5h117.773
			c0.276,0,0.5,0.224,0.5,0.5C263.028,318.412,262.805,318.636,262.528,318.636z"/>
	</g>
	<g>
		<path style="fill:#FFFFFF;" d="M213.111,281.338h-18.94c-1.577,0-2.856-1.279-2.856-2.856c0-1.577,1.279-2.856,2.856-2.856h18.94
			c1.577,0,2.856,1.279,2.856,2.856C215.968,280.06,214.689,281.338,213.111,281.338z"/>
	</g>
	<g>
		<path style="fill:#FFFFFF;" d="M213.651,307.161h-18.94c-1.577,0-2.856-1.279-2.856-2.856s1.279-2.856,2.856-2.856h18.94
			c1.577,0,2.856,1.279,2.856,2.856S215.228,307.161,213.651,307.161z"/>
	</g>
	<g>
		<path style="fill:#FFFFFF;" d="M213.651,333.618h-18.94c-1.577,0-2.856-1.279-2.856-2.856c0-1.577,1.279-2.856,2.856-2.856h18.94
			c1.577,0,2.856,1.279,2.856,2.856C216.507,332.34,215.228,333.618,213.651,333.618z"/>
	</g>
</g>
<g>
	<g>
		<path style="fill:#95B28E;" d="M76.811,127.024H35.661c-2.483,0-4.495-2.013-4.495-4.495V51.74c0-2.483,2.013-4.495,4.495-4.495
			h41.151c2.483,0,4.495,2.013,4.495,4.495v70.789C81.307,125.011,79.294,127.024,76.811,127.024z"/>
	</g>
	<g>
		<path style="fill:#E0DFE5;" d="M140.252,131.934H94.52c-2.922,0-5.291-2.369-5.291-5.291V47.625c0-2.922,2.369-5.291,5.291-5.291
			h45.732c2.922,0,5.291,2.369,5.291,5.291v79.018C145.543,129.566,143.174,131.934,140.252,131.934z"/>
	</g>
	<g>
		<path style="fill:#FFFFFF;" d="M72.432,67.266H40.041c-0.546,0-0.988-0.442-0.988-0.988v-5.433c0-0.546,0.442-0.988,0.988-0.988
			h32.391c0.546,0,0.988,0.442,0.988,0.988v5.433C73.42,66.823,72.977,67.266,72.432,67.266z"/>
	</g>
	<g>
		<path style="fill:#FFFFFF;" d="M72.432,81.109H40.041c-0.546,0-0.988-0.442-0.988-0.988v-5.433c0-0.546,0.442-0.988,0.988-0.988
			h32.391c0.546,0,0.988,0.442,0.988,0.988v5.433C73.42,80.667,72.977,81.109,72.432,81.109z"/>
	</g>
	<g>
		<path style="fill:#FFFFFF;" d="M136.986,54.194h-39.2c-0.59,0-1.068-0.478-1.068-1.068V50.51c0-0.59,0.478-1.068,1.068-1.068h39.2
			c0.59,0,1.068,0.478,1.068,1.068v2.615C138.054,53.715,137.576,54.194,136.986,54.194z"/>
	</g>
	<g>
		<path style="fill:#FFFFFF;" d="M136.832,124.997H97.939c-0.675,0-1.222-0.547-1.222-1.222v-2.308c0-0.675,0.547-1.222,1.222-1.222
			h38.893c0.675,0,1.222,0.547,1.222,1.222v2.308C138.054,124.45,137.507,124.997,136.832,124.997z"/>
	</g>
	<g>
		<path style="fill:#D0C9D3;" d="M135.61,114.69H99.161c-1.35,0-2.444-1.094-2.444-2.444V61.356c0-1.35,1.094-2.444,2.444-2.444
			h36.448c1.35,0,2.444,1.094,2.444,2.444v50.889C138.054,113.595,136.96,114.69,135.61,114.69z"/>
	</g>
</g>
<g>
	<g>
		<path style="fill:#EEECF1;" d="M830.11,285.189H621.182c-1.527,0-2.764-1.238-2.764-2.764v-1.422c0-1.527,1.238-2.764,2.764-2.764
			H830.11c1.527,0,2.764,1.238,2.764,2.764v1.422C832.875,283.951,831.637,285.189,830.11,285.189z"/>
	</g>
	<g>
		<path style="fill:#D0C8D6;" d="M814.444,271.052h-76.542V225.52c0-14.889,12.07-26.96,26.96-26.96h22.623
			c14.889,0,26.96,12.07,26.96,26.96V271.052z"/>
	</g>
	<g>
		<path style="fill:#A89FB3;" d="M811.028,291.855h-69.711c-6.099,0-11.043-4.944-11.043-11.043c0-6.099,4.944-11.043,11.043-11.043
			h69.711c6.099,0,11.043,4.944,11.043,11.043C822.071,286.911,817.127,291.855,811.028,291.855z"/>
	</g>
	<g>
		<path style="fill:#D0C8D6;" d="M714.181,271.496h-76.542v-45.532c0-14.889,12.07-26.96,26.96-26.96h22.623
			c14.89,0,26.96,12.07,26.96,26.96V271.496z"/>
	</g>
	<g>
		<path style="fill:#A89FB3;" d="M710.765,292.299h-69.711c-6.099,0-11.043-4.944-11.043-11.043c0-6.099,4.944-11.043,11.043-11.043
			h69.711c6.099,0,11.043,4.944,11.043,11.043C721.808,287.355,716.864,292.299,710.765,292.299z"/>
	</g>
	<g>
		<path style="fill:#BBB0C1;" d="M618.535,350.828H618.3c-2.512,0-4.549-2.037-4.549-4.549v-70.233c0-2.512,2.037-4.549,4.549-4.549
			h0.235c2.512,0,4.549,2.037,4.549,4.549v70.233C623.085,348.791,621.048,350.828,618.535,350.828z"/>
	</g>
	<g>
		<path style="fill:#BBB0C1;" d="M832.992,350.828h-0.235c-2.513,0-4.549-2.037-4.549-4.549v-70.233
			c0-2.512,2.037-4.549,4.549-4.549h0.235c2.512,0,4.549,2.037,4.549,4.549v70.233C837.541,348.791,835.504,350.828,832.992,350.828
			z"/>
	</g>
</g>
<g>
	<g>
		<rect x="383.374" style="fill:#EEECF1;" width="4.016" height="49.697"/>
	</g>
	<g>
		<path style="fill:#EEECF1;" d="M409.185,63.186h-47.607v-5.461c0-13.146,10.657-23.803,23.803-23.803
			c13.146,0,23.803,10.657,23.803,23.803V63.186z"/>
	</g>
	<g>
		<ellipse style="fill:#BBAFC0;" cx="385.382" cy="63.186" rx="23.803" ry="1.78"/>
	</g>
</g>
<g>
	<g>
		<circle style="fill:#95B28E;" cx="635.974" cy="50.32" r="22.223"/>
	</g>
	<g>
		<circle style="fill:#FFFFFF;" cx="635.974" cy="50.32" r="17.431"/>
	</g>
	<g>
		<path style="fill:#A89FB3;" d="M635.295,52.135c-0.088,0-0.175-0.017-0.259-0.049c-0.212-0.084-0.37-0.266-0.425-0.488
			l-2.104-8.668c-0.091-0.377,0.141-0.757,0.518-0.849c0.371-0.092,0.758,0.139,0.85,0.517l1.869,7.702l11.669-7.628
			c0.328-0.211,0.761-0.121,0.974,0.204c0.212,0.325,0.121,0.761-0.204,0.973l-12.502,8.173
			C635.563,52.096,635.43,52.135,635.295,52.135z"/>
	</g>
</g>
<g>
	<g>
		<path style="fill:#FFCC8F;" d="M629.157,158.949h45.252c1.591,0,2.881-1.29,2.881-2.881v-31.649c0-1.591-1.29-2.881-2.881-2.881
			h-45.252c-1.591,0-2.881,1.29-2.881,2.881v31.649C626.277,157.659,627.566,158.949,629.157,158.949z"/>
	</g>
	<g>
		<path style="fill:#95B28E;" d="M631.583,127.795v24.899c0,1.258,1.023,2.272,2.272,2.272h35.607c1.249,0,2.263-1.014,2.263-2.272
			v-24.899c0-1.258-1.014-2.272-2.263-2.272h-35.607C632.606,125.523,631.583,126.536,631.583,127.795z"/>
	</g>
	<g>
		<g>
			<ellipse style="fill:#FFFFFF;" cx="651.654" cy="141.698" rx="11.762" ry="7.258"/>
		</g>
		<g>
			<path style="fill:#FFFFFF;" d="M643.207,131.998c0.174-0.503,0.827-0.629,1.176-0.227l1.995,2.301l2.78,3.206l-4.166,0.804
				l-4.166,0.804l1.386-4.01L643.207,131.998z"/>
		</g>
		<g>
			<path style="fill:#FFFFFF;" d="M660.096,131.998c-0.174-0.503-0.827-0.629-1.176-0.227l-1.995,2.301l-2.78,3.206l4.166,0.804
				l4.166,0.804l-1.386-4.01L660.096,131.998z"/>
		</g>
	</g>
</g>
<g>
	<g>
		<path style="fill:#FFCC8F;" d="M769.259,160.872h-64.332c-2.315,0-4.192-1.877-4.192-4.192V64.8c0-2.315,1.877-4.192,4.192-4.192
			h64.332c2.315,0,4.192,1.877,4.192,4.192v91.88C773.451,158.995,771.574,160.872,769.259,160.872z"/>
	</g>
	<g>
		<path style="fill:#E2A89A;" d="M722.726,132.243c0,0-6.541-4.521-7.337-9.49c-0.795-4.969,5.359-14.787,4.266-15.486
			c-1.093-0.698-3.223,2.165-3.223,2.165s-0.17-1.784-1.557-1.158c-1.387,0.625-4.159,5.589-4.159,5.589s-0.228-1.552-0.928-0.921
			c-0.7,0.631-2.017,4.259-2.194,6.2c-0.177,1.941,0.178,3.012,0.178,3.012s-0.321-1.736-0.984-1.308
			c-0.664,0.428-0.161,6.1,4.163,10.814c4.324,4.715,9.407,4.695,9.407,4.695L722.726,132.243z"/>
	</g>
	<g>
		<path style="fill:#E2A89A;" d="M755.214,88.448c0,0,9.979,14.527,8.316,20.071c-1.663,5.545-4.574,9.426-6.237,16.495
			c-1.663,7.069,0,15.663,0,15.663s6.099,2.356,5.544,3.604c-0.555,1.248-3.465,0.832-3.465,0.832s-0.139,0.97-2.218,0.97
			c-2.079,0-3.465-1.109-3.465-1.109s-0.277,0.277-1.525,0s-4.574-22.871-4.574-22.871l0.785-34.977L755.214,88.448z"/>
	</g>
	<g>
		<path style="fill:#E2A89A;" d="M739.319,89.055c0,0-1.109,3.616-1.201,4.725c-0.092,1.109-0.162,5.139,0.462,4.559
			c1.756-1.632-8.409,8.008-14.878,16.325c-6.469,8.317-7.115,28.185-6.469,28.924c0.647,0.739,7.977,0.185,10.503,0.924
			c2.526,0.739,4.005,1.571,5.206,1.571s1.941-0.739,1.941-0.739s0.462,0.092,1.016-0.092c0.555-0.185,1.294-1.201,1.294-1.201
			s0.092,0.277,0.462-0.924c0.37-1.201-1.941-2.449-1.941-2.449h5.267c0,0,1.479,6.053,2.31,6.7c0.832,0.647,3.234,0,3.234,0
			s0.739,0.647,2.403,0.832c1.663,0.185,2.772-0.924,2.772-0.924s0.092,0.647,1.571,0.185c1.479-0.462-1.109-4.066-2.125-4.343
			c-1.016-0.277-2.68-2.31-3.558-6.653c-0.878-4.343,1.155-11.921,1.155-11.921l6.967-38.884L739.319,89.055z"/>
	</g>
	<g>
		<path style="fill:#E2A89A;" d="M738.011,90.474c3.385,3.094,11.34,2.433,12.442,1.767c1.106-0.661,0.445-4.196,0.445-4.196
			s6.849,5.963,11.045,5.963s5.302-8.837,5.302-8.837c0.071-0.129,0.848-1.613,0-3.094c-0.27-0.474-1.31-0.948-2.62-1.376
			c-2.965-0.973-7.323-1.713-7.323-1.713s-1.322-5.002-6.404-5.967c-5.082-0.961-10.604,0.441-11.269,4.2
			C738.967,80.976,734.622,87.38,738.011,90.474z"/>
	</g>
	<g>
		<path style="fill:#FFFFFF;" d="M767.244,85.172c0.071-0.129,0.848-1.613,0-3.094c-0.27-0.474-1.31-0.948-2.62-1.376
			C763.872,84.074,767.244,85.172,767.244,85.172z"/>
	</g>
	<g>
		<path style="fill:#D88680;" d="M750.897,88.285c-0.116,0-0.218-0.085-0.236-0.203c-0.015-0.09-1.429-8.976-4.078-10.647
			c-0.112-0.071-0.146-0.219-0.074-0.33c0.07-0.112,0.218-0.144,0.33-0.075c2.832,1.787,4.237,10.604,4.295,10.978
			c0.021,0.131-0.068,0.253-0.199,0.274C750.922,88.284,750.909,88.285,750.897,88.285z"/>
	</g>
	<g>
		<path style="fill:#D88680;" d="M748.273,126.804c-0.049,0-0.098-0.015-0.14-0.045c-0.107-0.077-0.132-0.227-0.055-0.334
			c0.044-0.061,4.436-6.112,9.584-9.672c0.109-0.076,0.258-0.048,0.334,0.061c0.075,0.109,0.048,0.258-0.061,0.333
			c-5.083,3.514-9.426,9.498-9.469,9.558C748.421,126.77,748.348,126.804,748.273,126.804z"/>
	</g>
	<g>
		<path style="fill:#D88680;" d="M735.715,140.917c-0.034-0.003-6.041-0.881-6.041-0.881c-0.092-0.013-0.167-0.078-0.194-0.166
			c-0.027-0.088-0.002-0.184,0.065-0.247c0.073-0.068,7.319-6.872,6.591-13.031c-0.727-6.145-8.482-9.733-8.56-9.769
			c-0.121-0.055-0.174-0.197-0.119-0.317c0.055-0.121,0.197-0.174,0.316-0.119c0.33,0.149,8.079,3.734,8.839,10.149
			c0.67,5.669-4.892,11.612-6.388,13.097l5.524,0.808c0.132,0.019,0.222,0.141,0.203,0.271
			C735.935,140.831,735.832,140.917,735.715,140.917z"/>
	</g>
	<g>
		<path style="fill:#FFFFFF;" d="M712.293,74.101c0,1.73-1.402,3.132-3.132,3.132c-1.73,0-3.132-1.402-3.132-3.132
			c0-1.73,1.402-3.132,3.132-3.132C710.891,70.969,712.293,72.371,712.293,74.101z"/>
	</g>
	<g>
		<path style="fill:#FFFFFF;" d="M720.765,93.544c0,1.73-1.402,3.132-3.132,3.132c-1.73,0-3.132-1.402-3.132-3.132
			c0-1.73,1.402-3.132,3.132-3.132C719.363,90.412,720.765,91.814,720.765,93.544z"/>
	</g>
	<g>
		<path style="fill:#FFFFFF;" d="M769.208,131.412c0,1.73-1.402,3.132-3.132,3.132c-1.73,0-3.132-1.402-3.132-3.132
			s1.402-3.132,3.132-3.132C767.806,128.28,769.208,129.682,769.208,131.412z"/>
	</g>
	<g>
		<path style="fill:#FFFFFF;" d="M766.076,131.912c-0.276,0-0.5-0.224-0.5-0.5v-11.185l-8.149-9.154
			c-0.184-0.206-0.166-0.522,0.041-0.706c0.204-0.185,0.522-0.166,0.705,0.041l8.276,9.296c0.082,0.092,0.127,0.21,0.127,0.332
			v11.375C766.576,131.689,766.352,131.912,766.076,131.912z"/>
	</g>
	<g>
		<path style="fill:#FFFFFF;" d="M743.162,83.868c-0.071,0-0.144-0.015-0.212-0.047l-19.686-9.22h-14.102
			c-0.276,0-0.5-0.224-0.5-0.5c0-0.276,0.224-0.5,0.5-0.5h14.213c0.073,0,0.146,0.016,0.212,0.047l19.787,9.267
			c0.25,0.117,0.358,0.415,0.241,0.665C743.53,83.762,743.35,83.868,743.162,83.868z"/>
	</g>
	<g>
		<path style="fill:#FFFFFF;" d="M734.901,113.537c-0.112,0-0.225-0.037-0.317-0.114l-12.176-10
			c-0.051-0.042-0.093-0.092-0.123-0.15l-5.092-9.493c-0.131-0.243-0.039-0.546,0.204-0.677c0.242-0.13,0.547-0.04,0.677,0.204
			l5.045,9.405l12.1,9.938c0.213,0.175,0.244,0.49,0.069,0.704C735.188,113.474,735.046,113.537,734.901,113.537z"/>
	</g>
</g>
<g>
	<g>
		<g>
			<path style="fill:#EEECF1;" d="M129.56,342.41H24.465c-6.11,0-11.063-4.953-11.063-11.063V160.232
				c0-6.11,4.953-11.063,11.063-11.063H129.56c6.11,0,11.063,4.953,11.063,11.063v171.115
				C140.624,337.457,135.67,342.41,129.56,342.41z"/>
		</g>
		<g>
			<path style="fill:#D5D0D8;" d="M123.062,342.579H30.964c-5.592,0-10.125-4.533-10.125-10.125v-163.03
				c0-5.592,4.533-10.125,10.125-10.125h92.098c5.592,0,10.125,4.533,10.125,10.125v163.03
				C133.186,338.046,128.653,342.579,123.062,342.579z"/>
		</g>
		<g>
			<g>
				<path style="fill:#EEECF1;" d="M100.884,271.094H68.907c-1.661,0-3.007-1.346-3.007-3.007v-0.432
					c0-1.661,1.346-3.007,3.007-3.007h31.978c0.591,0,1.07,0.479,1.07,1.07v4.305C101.954,270.615,101.475,271.094,100.884,271.094z
					"/>
			</g>
			<g>
				<path style="fill:#BBAFC0;" d="M105.752,271.162H73.774c-1.661,0-3.007-1.346-3.007-3.007v-0.432
					c0-1.661,1.346-3.007,3.007-3.007h31.978c0.591,0,1.07,0.479,1.07,1.07v4.305C106.822,270.683,106.343,271.162,105.752,271.162z
					"/>
			</g>
			<g>
				<path style="fill:#FFFFFF;" d="M106.822,269.917H74.281c-1.13,0-2.046-0.916-2.046-2.046s0.916-2.046,2.046-2.046h32.541
					V269.917z"/>
			</g>
			<g>
				<path style="fill:#BBAFC0;" d="M64.373,264.768h35.971c1.78,0,3.223-1.443,3.223-3.223c0-1.78-1.443-3.223-3.223-3.223H64.373
					c-0.047,0-0.084,0.038-0.084,0.084v6.277C64.288,264.73,64.326,264.768,64.373,264.768z"/>
			</g>
			<g>
				<path style="fill:#CEC5D3;" d="M63.524,264.768h27.809c1.78,0,3.223-1.443,3.223-3.223c0-1.78-1.443-3.223-3.223-3.223H63.524
					c-0.557,0-1.009,0.452-1.009,1.009v4.428C62.515,264.316,62.967,264.768,63.524,264.768z"/>
			</g>
			<g>
				<path style="fill:#FFFFFF;" d="M62.515,263.523h28.69c1.13,0,2.046-0.916,2.046-2.046s-0.916-2.046-2.046-2.046h-28.69V263.523z
					"/>
			</g>
			<g>
				<path style="fill:#EEECF1;" d="M67.318,258.374h28.908c1.78,0,3.223-1.443,3.223-3.223c0-1.78-1.443-3.223-3.223-3.223H67.318
					c-0.203,0-0.368,0.165-0.368,0.368v5.709C66.95,258.209,67.115,258.374,67.318,258.374z"/>
			</g>
			<g>
				<path style="fill:#BBAFC0;" d="M66.4,258.374h22.37c1.78,0,3.223-1.443,3.223-3.223c0-1.78-1.443-3.223-3.223-3.223H66.4
					c-0.507,0-0.918,0.411-0.918,0.918v4.61C65.483,257.963,65.894,258.374,66.4,258.374z"/>
			</g>
			<g>
				<path style="fill:#FFFFFF;" d="M65.483,257.129h23.385c1.13,0,2.046-0.916,2.046-2.046c0-1.13-0.916-2.046-2.046-2.046H65.483
					V257.129z"/>
			</g>
		</g>
		<g>
			<path style="fill:#EEECF1;" d="M74.302,210.975h31.978c1.661,0,3.007,1.346,3.007,3.007v0.432c0,1.661-1.346,3.007-3.007,3.007
				H74.302c-0.591,0-1.07-0.479-1.07-1.07v-4.305C73.232,211.454,73.711,210.975,74.302,210.975z"/>
		</g>
		<g>
			<path style="fill:#BBAFC0;" d="M69.434,210.906h31.978c1.661,0,3.007,1.346,3.007,3.007v0.432c0,1.661-1.346,3.007-3.007,3.007
				H69.434c-0.591,0-1.07-0.479-1.07-1.07v-4.305C68.364,211.385,68.843,210.906,69.434,210.906z"/>
		</g>
		<g>
			<path style="fill:#FFFFFF;" d="M68.364,212.151h32.541c1.13,0,2.046,0.916,2.046,2.046s-0.916,2.046-2.046,2.046H68.364V212.151z
				"/>
		</g>
		<g>
			<path style="fill:#BBAFC0;" d="M110.814,217.3H74.843c-1.78,0-3.223,1.443-3.223,3.223s1.443,3.223,3.223,3.223h35.971
				c0.047,0,0.084-0.038,0.084-0.084v-6.277C110.898,217.338,110.86,217.3,110.814,217.3z"/>
		</g>
		<g>
			<path style="fill:#CEC5D3;" d="M111.663,217.3H83.854c-1.78,0-3.223,1.443-3.223,3.223s1.443,3.223,3.223,3.223h27.809
				c0.557,0,1.009-0.452,1.009-1.009v-4.428C112.671,217.752,112.22,217.3,111.663,217.3z"/>
		</g>
		<g>
			<path style="fill:#FFFFFF;" d="M112.671,218.545h-28.69c-1.13,0-2.046,0.916-2.046,2.046s0.916,2.046,2.046,2.046h28.69V218.545z
				"/>
		</g>
		<g>
			<path style="fill:#EEECF1;" d="M107.868,223.695h-39.44c-1.78,0-3.223,1.443-3.223,3.223s1.443,3.223,3.223,3.223h39.44
				c0.203,0,0.368-0.165,0.368-0.368v-5.709C108.236,223.859,108.072,223.695,107.868,223.695z"/>
		</g>
		<g>
			<path style="fill:#BBAFC0;" d="M108.786,223.695h-22.37c-1.78,0-3.223,1.443-3.223,3.223s1.443,3.223,3.223,3.223h22.37
				c0.507,0,0.918-0.411,0.918-0.918v-4.61C109.704,224.105,109.293,223.695,108.786,223.695z"/>
		</g>
		<g>
			<path style="fill:#FFFFFF;" d="M109.704,224.939H86.318c-1.13,0-2.046,0.916-2.046,2.046c0,1.13,0.916,2.046,2.046,2.046h23.385
				V224.939z"/>
		</g>
		<g>
			<path style="fill:#FFB655;" d="M44.205,188.737h-6.222v-19.639c0-1.718,1.393-3.111,3.111-3.111s3.111,1.393,3.111,3.111V188.737
				z"/>
		</g>
		<g>
			<path style="fill:#95B28E;" d="M56.65,188.737h-6.222v-19.639c0-1.718,1.393-3.111,3.111-3.111s3.111,1.393,3.111,3.111V188.737z
				"/>
		</g>
		<g>
			<path style="fill:#BBAFC0;" d="M37.983,188.737h-6.222v-22.305c0-1.718,1.393-3.111,3.111-3.111c1.718,0,3.111,1.393,3.111,3.111
				V188.737z"/>
		</g>
		<g>
			<path style="fill:#EEECF1;" d="M50.428,188.737h-6.222v-23.194c0-1.718,1.393-3.111,3.111-3.111c1.718,0,3.111,1.393,3.111,3.111
				V188.737z"/>
		</g>
		<g>
			<path style="fill:#FFB655;" d="M109.287,189.182h-6.222v-19.638c0-1.718,1.393-3.111,3.111-3.111
				c1.718,0,3.111,1.393,3.111,3.111V189.182z"/>
		</g>
		<g>
			<path style="fill:#95B28E;" d="M121.731,189.182h-6.222v-19.638c0-1.718,1.393-3.111,3.111-3.111
				c1.718,0,3.111,1.393,3.111,3.111V189.182z"/>
		</g>
		<g>
			<path style="fill:#FFFFFF;" d="M103.064,189.182h-6.222v-22.305c0-1.718,1.393-3.111,3.111-3.111s3.111,1.393,3.111,3.111
				V189.182z"/>
		</g>
		<g>
			<path style="fill:#FFB655;" d="M115.509,189.182h-6.222v-23.194c0-1.718,1.393-3.111,3.111-3.111
				c1.718,0,3.111,1.393,3.111,3.111V189.182z"/>
		</g>
		<g>
			<path style="fill:#FFFFFF;" d="M84.448,188.737h-6.222v-19.639c0-1.718,1.393-3.111,3.111-3.111c1.718,0,3.111,1.393,3.111,3.111
				V188.737z"/>
		</g>
		<g>
			<path style="fill:#95B28E;" d="M96.893,188.737h-6.222v-19.639c0-1.718,1.393-3.111,3.111-3.111c1.718,0,3.111,1.393,3.111,3.111
				V188.737z"/>
		</g>
		<g>
			<path style="fill:#FFFFFF;" d="M78.226,188.737h-6.222v-22.305c0-1.718,1.393-3.111,3.111-3.111s3.111,1.393,3.111,3.111V188.737
				z"/>
		</g>
		<g>
			<path style="fill:#FFB655;" d="M90.671,188.737h-6.222v-23.194c0-1.718,1.393-3.111,3.111-3.111s3.111,1.393,3.111,3.111V188.737
				z"/>
		</g>
		<g>
			<path style="fill:#95B28E;" d="M50.428,230.11h-6.222v-19.638c0-1.718,1.393-3.111,3.111-3.111c1.718,0,3.111,1.393,3.111,3.111
				V230.11z"/>
		</g>
		<g>
			<path style="fill:#BBAFC0;" d="M37.983,229.92h-6.222v-17.355c0-1.623,1.316-2.938,2.938-2.938h0.346
				c1.623,0,2.938,1.316,2.938,2.938V229.92z"/>
		</g>
		<g>
			<path style="fill:#95B28E;" d="M62.872,230.11H56.65v-19.638c0-1.718,1.393-3.111,3.111-3.111c1.718,0,3.111,1.393,3.111,3.111
				V230.11z"/>
		</g>
		<g>
			<path style="fill:#FFB655;" d="M44.205,230.11h-6.222v-22.305c0-1.718,1.393-3.111,3.111-3.111s3.111,1.393,3.111,3.111V230.11z"
				/>
		</g>
		<g>
			<path style="fill:#FFB655;" d="M56.65,230.11h-6.222v-23.194c0-1.718,1.393-3.111,3.111-3.111s3.111,1.393,3.111,3.111V230.11z"
				/>
		</g>
		<g>
			<path style="fill:#95B28E;" d="M123.342,271.526h-6.222v-19.639c0-1.718,1.393-3.111,3.111-3.111
				c1.718,0,3.111,1.393,3.111,3.111V271.526z"/>
		</g>
		<g>
			<path style="fill:#95B28E;" d="M117.12,271.526h-6.222v-23.194c0-1.718,1.393-3.111,3.111-3.111c1.718,0,3.111,1.393,3.111,3.111
				V271.526z"/>
		</g>
		<g>
			<rect x="16.872" y="312.855" style="fill:#EEECF1;" width="119.333" height="8.587"/>
		</g>
		<g>
			<rect x="16.872" y="271.482" style="fill:#EEECF1;" width="119.333" height="8.587"/>
		</g>
		<g>
			<rect x="16.872" y="230.11" style="fill:#EEECF1;" width="119.333" height="8.587"/>
		</g>
		<g>
			<rect x="16.872" y="188.737" style="fill:#EEECF1;" width="119.333" height="8.587"/>
		</g>
	</g>
	<g>
		<path style="fill:#EEECF1;" d="M63.465,312.855h-30.52v-13.636c0-0.588,0.476-1.064,1.064-1.064h28.392
			c0.588,0,1.064,0.476,1.064,1.064V312.855z"/>
	</g>
	<g>
		<path style="fill:#95B28E;" d="M121.199,312.855H72.364v-21.819c0-0.94,0.762-1.702,1.702-1.702h45.43
			c0.94,0,1.702,0.762,1.702,1.702V312.855z"/>
	</g>
	<g>
		<g>
			<path style="fill:#EEECF1;" d="M97.789,309.521h-2.015c-0.37,0-0.67-0.3-0.67-0.67v-15.514c0-0.37,0.3-0.67,0.67-0.67h2.015
				c0.37,0,0.67,0.3,0.67,0.67v15.514C98.46,309.221,98.159,309.521,97.789,309.521z"/>
		</g>
		<g>
			<path style="fill:#EEECF1;" d="M105.209,300.086v2.015c0,0.37-0.3,0.671-0.67,0.671H89.024c-0.37,0-0.67-0.3-0.67-0.671v-2.015
				c0-0.37,0.3-0.671,0.67-0.671h15.514C104.909,299.416,105.209,299.716,105.209,300.086z"/>
		</g>
	</g>
	<g>
		<rect x="33.464" y="216.442" style="fill:#FFFFFF;" width="3.111" height="8.595"/>
	</g>
	<g>
		<rect x="39.687" y="212.912" style="fill:#FFFFFF;" width="3.111" height="8.595"/>
	</g>
	<g>
		<rect x="52.131" y="214.089" style="fill:#FFFFFF;" width="3.111" height="8.595"/>
	</g>
	<g>
		<rect x="45.909" y="215.644" style="fill:#FFFFFF;" width="3.111" height="8.595"/>
	</g>
	<g>
		<rect x="58.058" y="215.404" style="fill:#FFFFFF;" width="3.111" height="8.595"/>
	</g>
</g>
<g>
	<g>
		<path style="fill:#C5BCCC;" d="M331.406,211.569c-0.829,0-1.5-0.672-1.5-1.5v-29.536l-8.943-1.032v7.163
			c0,0.829-0.671,1.5-1.5,1.5c-0.829,0-1.5-0.671-1.5-1.5v-8.846c0-0.428,0.183-0.835,0.502-1.12c0.319-0.285,0.74-0.42,1.17-0.371
			l11.943,1.378c0.757,0.087,1.328,0.729,1.328,1.49v30.873C332.906,210.898,332.234,211.569,331.406,211.569z"/>
	</g>
	<g>
		<path style="fill:#E1DAE5;" d="M344.546,207.36h-8.772v-1.915c0-2.422,1.964-4.386,4.386-4.386c2.422,0,4.386,1.964,4.386,4.386
			V207.36z"/>
	</g>
	<g>
		<path style="fill:#E1DAE5;" d="M326.974,207.36h-8.772v-1.915c0-2.422,1.964-4.386,4.386-4.386s4.386,1.964,4.386,4.386V207.36z"
			/>
	</g>
	<g>
		<path style="fill:#C5BCCC;" d="M358.477,217.243h-52.723c-2.97,0-5.378-2.408-5.378-5.378c0-2.97,2.408-5.378,5.378-5.378h52.723
			c2.97,0,5.378,2.408,5.378,5.378C363.855,214.835,361.447,217.243,358.477,217.243z"/>
	</g>
	<g>
		<path style="fill:#E0DFE5;" d="M604.344,277.238H363.855V110.994c0-8.231,6.673-14.904,14.904-14.904H589.44
			c8.231,0,14.904,6.673,14.904,14.904V277.238z"/>
	</g>
	<g>
		<path style="fill:#FFC885;" d="M540.043,134.272h-9.779v-18.484c0-0.841,0.682-1.523,1.523-1.523h6.732
			c0.841,0,1.523,0.682,1.523,1.523V134.272z"/>
	</g>
	<g>
		<path style="fill:#FFC885;" d="M553.767,134.272h-9.779v-18.484c0-0.841,0.682-1.523,1.523-1.523h6.732
			c0.841,0,1.523,0.682,1.523,1.523V134.272z"/>
	</g>
	<g>
		<path style="fill:#95B28E;" d="M524.264,134.272h-30.52v-13.636c0-0.587,0.476-1.064,1.064-1.064h28.392
			c0.588,0,1.064,0.476,1.064,1.064V134.272z"/>
	</g>
	<g>
		<path style="fill:#FFFFFF;" d="M457.709,134.272h-30.52v-13.636c0-0.587,0.476-1.064,1.064-1.064h28.392
			c0.587,0,1.064,0.476,1.064,1.064V134.272z"/>
	</g>
	<g>
		<g>
			<path style="fill:#95B28E;" d="M538.07,191.668h-9.779v-18.484c0-0.841,0.682-1.523,1.523-1.523h6.732
				c0.841,0,1.523,0.682,1.523,1.523V191.668z"/>
		</g>
		<g>
			<path style="fill:#CEC2D3;" d="M551.794,191.668h-9.779v-18.484c0-0.841,0.682-1.523,1.523-1.523h6.732
				c0.841,0,1.523,0.682,1.523,1.523V191.668z"/>
		</g>
		<g>
			<rect x="531.095" y="168.727" style="fill:#95B28E;" width="4.171" height="4.889"/>
		</g>
		<g>
			<path style="fill:#95B28E;" d="M535.15,169.716h-3.973c-0.504,0-0.913-0.409-0.913-0.913c0-0.504,0.409-0.913,0.913-0.913h3.973
				c0.504,0,0.913,0.409,0.913,0.913C536.063,169.307,535.654,169.716,535.15,169.716z"/>
		</g>
		<g>
			<rect x="544.836" y="169.145" style="fill:#CEC2D3;" width="4.171" height="4.889"/>
		</g>
		<g>
			<path style="fill:#CEC2D3;" d="M548.891,170.134h-3.973c-0.504,0-0.913-0.409-0.913-0.913s0.409-0.913,0.913-0.913h3.973
				c0.504,0,0.913,0.409,0.913,0.913S549.395,170.134,548.891,170.134z"/>
		</g>
	</g>
	<g>
		<g>
			<path style="fill:#CEC2D3;" d="M506.681,192.071h-9.779v-18.484c0-0.841,0.682-1.523,1.523-1.523h6.732
				c0.841,0,1.523,0.682,1.523,1.523V192.071z"/>
		</g>
		<g>
			<path style="fill:#95B28E;" d="M520.405,192.071h-9.779v-18.484c0-0.841,0.682-1.523,1.523-1.523h6.732
				c0.841,0,1.523,0.682,1.523,1.523V192.071z"/>
		</g>
		<g>
			<rect x="499.706" y="169.129" style="fill:#CEC2D3;" width="4.171" height="4.889"/>
		</g>
		<g>
			<path style="fill:#CEC2D3;" d="M503.76,170.119h-3.973c-0.504,0-0.913-0.409-0.913-0.913c0-0.504,0.409-0.913,0.913-0.913h3.973
				c0.504,0,0.913,0.409,0.913,0.913C504.673,169.71,504.265,170.119,503.76,170.119z"/>
		</g>
		<g>
			<rect x="513.447" y="169.548" style="fill:#95B28E;" width="4.171" height="4.889"/>
		</g>
		<g>
			<path style="fill:#95B28E;" d="M517.502,170.537h-3.973c-0.504,0-0.913-0.409-0.913-0.913c0-0.504,0.409-0.913,0.913-0.913h3.973
				c0.504,0,0.913,0.409,0.913,0.913C518.415,170.128,518.006,170.537,517.502,170.537z"/>
		</g>
	</g>
	<g>
		<g>
			<path style="fill:#CEC2D3;" d="M473.625,192.071h-9.779v-18.484c0-0.841,0.682-1.523,1.523-1.523h6.732
				c0.841,0,1.523,0.682,1.523,1.523V192.071z"/>
		</g>
		<g>
			<path style="fill:#FFC885;" d="M487.349,192.071h-9.779v-18.484c0-0.841,0.682-1.523,1.523-1.523h6.732
				c0.841,0,1.523,0.682,1.523,1.523V192.071z"/>
		</g>
		<g>
			<rect x="466.65" y="169.129" style="fill:#CEC2D3;" width="4.171" height="4.889"/>
		</g>
		<g>
			<path style="fill:#CEC2D3;" d="M470.705,170.119h-3.973c-0.504,0-0.913-0.409-0.913-0.913c0-0.504,0.409-0.913,0.913-0.913h3.973
				c0.504,0,0.913,0.409,0.913,0.913C471.618,169.71,471.209,170.119,470.705,170.119z"/>
		</g>
		<g>
			<rect x="480.391" y="169.548" style="fill:#FFC885;" width="4.171" height="4.889"/>
		</g>
		<g>
			<path style="fill:#FFC885;" d="M484.446,170.537h-3.973c-0.504,0-0.913-0.409-0.913-0.913c0-0.504,0.409-0.913,0.913-0.913h3.973
				c0.504,0,0.913,0.409,0.913,0.913C485.359,170.128,484.95,170.537,484.446,170.537z"/>
		</g>
	</g>
	<g>
		<rect x="412.695" y="191.345" style="fill:#C7BFCE;" width="149.918" height="4.678"/>
	</g>
	<g>
		<rect x="412.047" y="134.272" style="fill:#C7BFCE;" width="149.918" height="4.678"/>
	</g>
	<g>
		<rect x="409.946" y="96.09" style="fill:#C7BFCE;" width="8.667" height="134.809"/>
	</g>
	<g>
		<rect x="558.279" y="96.09" style="fill:#C7BFCE;" width="8.667" height="134.809"/>
	</g>
	<g>
		<path style="fill:#FFFFFF;" d="M598.946,151.584h-26.667c-0.276,0-0.5-0.224-0.5-0.5s0.224-0.5,0.5-0.5h26.667
			c0.276,0,0.5,0.224,0.5,0.5S599.223,151.584,598.946,151.584z"/>
	</g>
	<g>
		<path style="fill:#FFFFFF;" d="M598.946,134.02h-26.667c-0.276,0-0.5-0.224-0.5-0.5c0-0.276,0.224-0.5,0.5-0.5h26.667
			c0.276,0,0.5,0.224,0.5,0.5C599.446,133.797,599.223,134.02,598.946,134.02z"/>
	</g>
	<g>
		<path style="fill:#FFFFFF;" d="M598.946,116.457h-26.667c-0.276,0-0.5-0.224-0.5-0.5c0-0.276,0.224-0.5,0.5-0.5h26.667
			c0.276,0,0.5,0.224,0.5,0.5C599.446,116.233,599.223,116.457,598.946,116.457z"/>
	</g>
	<g>
		<path style="fill:#FFFFFF;" d="M400.379,151.481h-26.667c-0.276,0-0.5-0.224-0.5-0.5c0-0.276,0.224-0.5,0.5-0.5h26.667
			c0.276,0,0.5,0.224,0.5,0.5C400.879,151.257,400.655,151.481,400.379,151.481z"/>
	</g>
	<g>
		<path style="fill:#FFFFFF;" d="M400.379,133.917h-26.667c-0.276,0-0.5-0.224-0.5-0.5c0-0.276,0.224-0.5,0.5-0.5h26.667
			c0.276,0,0.5,0.224,0.5,0.5C400.879,133.694,400.655,133.917,400.379,133.917z"/>
	</g>
	<g>
		<path style="fill:#FFFFFF;" d="M400.379,116.354h-26.667c-0.276,0-0.5-0.224-0.5-0.5c0-0.276,0.224-0.5,0.5-0.5h26.667
			c0.276,0,0.5,0.224,0.5,0.5C400.879,116.13,400.655,116.354,400.379,116.354z"/>
	</g>
	<g>
		<rect x="404.777" y="198.57" style="fill:#FFFFFF;" width="11.103" height="19.579"/>
	</g>
	<g>
		<path style="fill:#FFFFFF;" d="M441.519,203.145H385.49c-2.3,0-4.164-1.864-4.164-4.164v-29.63c0-2.3,1.864-4.164,4.164-4.164
			h56.029c2.3,0,4.164,1.864,4.164,4.164v29.63C445.683,201.281,443.819,203.145,441.519,203.145z"/>
	</g>
	<g>
		<path style="fill:#D0C8D6;" d="M381.645,346.813H287.04c-4.637,0-8.395-3.759-8.395-8.395V234.067
			c0-10.841,8.788-19.629,19.629-19.629h83.371V346.813z"/>
	</g>
	<g>
		<g>
			<path style="fill:#C5BCCC;" d="M601.445,347.608H445.266V214.54h156.178c1.601,0,2.899,1.298,2.899,2.899v127.269
				C604.344,346.31,603.046,347.608,601.445,347.608z"/>
		</g>
		<g>
			<path style="fill:#D0C8D6;" d="M585.096,347.608h-219.03c-1.723,0-3.12-1.397-3.12-3.12V236.16c0-11.94,9.68-21.62,21.62-21.62
				h200.531c1.742,0,3.153,1.412,3.153,3.153v126.761C588.25,346.196,586.838,347.608,585.096,347.608z"/>
		</g>
	</g>
	<g>
		<g>
			<path style="fill:#EEECF1;" d="M487.677,310.996h-7.156c-1.315,0-2.381-1.066-2.381-2.38v-55.084
				c0-1.315,1.066-2.381,2.381-2.381h7.156c1.315,0,2.381,1.066,2.381,2.381v55.084
				C490.058,309.931,488.992,310.996,487.677,310.996z"/>
		</g>
		<g>
			<path style="fill:#EEECF1;" d="M514.022,277.496v7.156c0,1.315-1.066,2.38-2.38,2.38h-55.084c-1.315,0-2.381-1.066-2.381-2.38
				v-7.156c0-1.315,1.066-2.381,2.381-2.381h55.084C512.956,275.115,514.022,276.181,514.022,277.496z"/>
		</g>
	</g>
	<g>
		<g>
			<path style="fill:#E07722;" d="M521.371,201.787c-0.173,0-0.329-0.12-0.366-0.296l-4.788-22.281
				c-0.044-0.202,0.085-0.402,0.287-0.445c0.216-0.044,0.403,0.086,0.445,0.288l4.788,22.28c0.044,0.203-0.085,0.402-0.287,0.445
				C521.423,201.784,521.396,201.787,521.371,201.787z"/>
		</g>
		<g>
			<path style="fill:#E07722;" d="M521.977,196.23c-0.229-0.013-0.387-0.191-0.374-0.398l1.376-22.747
				c0.012-0.206,0.162-0.37,0.396-0.352c0.207,0.013,0.364,0.19,0.352,0.397l-1.376,22.747
				C522.339,196.077,522.174,196.23,521.977,196.23z"/>
		</g>
		<g>
			<path style="fill:#E07722;" d="M525.483,198.293c-0.038,0-0.076-0.006-0.114-0.018c-0.197-0.063-0.306-0.274-0.243-0.471
				l6.922-21.712c0.063-0.198,0.274-0.305,0.472-0.244c0.197,0.063,0.306,0.274,0.243,0.471l-6.922,21.712
				C525.79,198.191,525.643,198.293,525.483,198.293z"/>
		</g>
		<g>
			<path style="fill:#E07722;" d="M523.66,203.28c-0.024,0-0.05-0.003-0.075-0.008c-0.203-0.042-0.334-0.24-0.292-0.442
				l4.596-22.321c0.041-0.202,0.234-0.336,0.442-0.291c0.203,0.041,0.334,0.24,0.292,0.443l-4.596,22.32
				C523.991,203.158,523.835,203.28,523.66,203.28z"/>
		</g>
		<g>
			<path style="fill:#FFFFFF;" d="M528.518,214.78h-8.507c-0.818,0-1.508-0.481-1.608-1.121l-3.193-20.482
				c-0.119-0.761,0.635-1.432,1.608-1.432h14.893c0.973,0,1.726,0.671,1.608,1.432l-3.193,20.482
				C530.026,214.299,529.336,214.78,528.518,214.78z"/>
		</g>
	</g>
	<g>
		<path style="fill:#FFFFFF;" d="M370.934,346.625c-0.279-0.002-0.502-0.228-0.5-0.504l0.928-130.29
			c0.002-0.275,0.226-0.496,0.5-0.496c0.279,0.002,0.502,0.227,0.5,0.504l-0.928,130.29
			C371.433,346.403,371.209,346.625,370.934,346.625z"/>
	</g>
</g>
<g>
	<g>
		<g>
			<path style="fill:#F98575;" d="M213.585,205.454c0,0-5.374-0.949-8.71,0.738c-3.336,1.687-6.077,4.187-3.859,4.477
				c2.218,0.291,6.232-0.164,6.232-0.164l-3.26,4.229c0,0-2.741,2.5-4.286,4.503c-1.544,2.003-0.184,3.407-0.184,3.407
				s-1.544,2.003-1.293,3.261c0.251,1.258,1.959,1.155,1.959,1.155s-1.293,3.262,1.695,3.081c2.988-0.18,9.835-4.838,12.577-7.338
				c2.741-2.5,6.609-9.1,6.609-9.1S225.067,207.998,213.585,205.454z"/>
		</g>
	</g>
	<g>
		<path d="M207.105,223.573c-0.191,0-0.354-0.145-0.372-0.339l-0.97-10.11c-0.02-0.206,0.131-0.39,0.337-0.409
			c0.201-0.016,0.389,0.131,0.409,0.337l0.97,10.11c0.02,0.206-0.131,0.39-0.337,0.409
			C207.129,223.572,207.118,223.573,207.105,223.573z"/>
	</g>
	<g>
		<path d="M210.996,212.21c-1.965,0-3.168-1.297-3.22-1.354c-0.135-0.148-0.124-0.378,0.024-0.514
			c0.148-0.135,0.378-0.126,0.514,0.022c0.011,0.012,1.12,1.198,2.859,1.111c1.661-0.078,3.357-1.239,5.04-3.45
			c0.122-0.159,0.351-0.19,0.511-0.069c0.16,0.122,0.191,0.351,0.069,0.511c-1.825,2.396-3.708,3.654-5.6,3.737
			C211.127,212.208,211.061,212.21,210.996,212.21z"/>
	</g>
	<g>
		<path style="fill:#F98575;" d="M226.359,189.781c0,0-11.493,16.638-17.939,17.652c-6.446,1.013,8.235,11.566,8.235,11.566
			s28.352-5.414,29.115-24.84C246.533,174.732,226.359,189.781,226.359,189.781z"/>
	</g>
	<g>
		<polygon style="fill:#F98575;" points="283.476,325.799 284.024,346.923 265.262,347.41 264.325,327.631 		"/>
	</g>
	<g>
		<polygon style="fill:#F98575;" points="241.926,327.541 233.676,348.232 216.243,341.28 223.578,321.739 		"/>
	</g>
	<g>
		<path style="fill:#507849;" d="M239.922,216.698L215.89,323.593c0,0,27.597,11.821,28.889,11.472
			c1.292-0.349,10.699-51.573,10.699-51.573s1.959,50.977,1.855,51.247c-0.105,0.27,31.653-0.403,33.589-1.389
			c1.937-0.986-7.38-115.592-7.38-115.592L239.922,216.698z"/>
	</g>
	<g>
		<path style="fill:#5D8455;" d="M303.434,193.913c0,0-6.604-22.57-19.647-31.128c-13.043-8.558-35.224-5.3-41.083-0.374
			c-11.863,9.975-17.876,27.949-17.876,27.949l14.815,7.629l-1.575,19.608l46.489,1.802l-0.721-24.476L303.434,193.913z"/>
	</g>
	<g>
		<g>
			<path style="fill:#EDB324;" d="M230.841,357.424c1.337,0.333,2.721-0.508,3.148-1.916c1.689-5.564,6.156-17.829,5.141-18.137
				c-1.295-0.393-15.372-0.788-15.372-0.788s1.968-7.822-3.817-8.065c-4.439-0.186-10.695,3.27-13.367,4.889
				c-0.848,0.514-1.801,0.761-2.761,0.714c-4.125-0.205-15.629-0.257-17.496,5.357c-2.283,6.863,0.732,6.914,2.027,7.306
				C189.456,347.122,221.725,355.156,230.841,357.424z"/>
		</g>
	</g>
	<g>
		<g>
			<path style="fill:#F7C537;" d="M283.162,359.109c1.374-0.093,2.434-1.317,2.409-2.789c-0.097-5.814,0.396-18.858-0.664-18.84
				c-1.353,0.023-14.873,3.961-14.873,3.961s-0.524-8.049-6.105-6.507c-4.282,1.183-9.179,6.391-11.226,8.75
				c-0.65,0.749-1.482,1.277-2.409,1.526c-3.99,1.069-14.956,4.545-15.013,10.461c-0.07,7.232,2.815,6.357,4.168,6.334
				C240.611,361.984,273.789,359.743,283.162,359.109z"/>
		</g>
	</g>
	<g>
		<path d="M252.092,139.894c0,0-6.313-6.503-4.185-9.505c2.129-3.001,6.063-0.551,6.063-0.551s-0.096-3.314,3.606-3.307
			c3.703,0.007,6.271,3.718,6.271,3.718s2.937-3.526,5.442-0.495c2.506,3.031,1.454,8.444,1.454,8.444s2.518-0.61,2.109,2.448
			c-0.408,3.058-4.141,6.511-4.141,6.511L252.092,139.894z"/>
	</g>
	<g>
		<g>
			<path style="fill:#F98575;" d="M265.339,149.965l0.314,7.943c0,0-1.342,2.34-5.974,2.901c-3.45,0.418-4.577-1.82-4.577-1.82
				l0.203-2.539l0.321-3.942l8.317-2.177L265.339,149.965z"/>
		</g>
	</g>
	<g>
		<g>
			<path d="M265.3,149.574c0.003,0.218-0.053,0.481-0.15,0.787c-1.356,4.134-7.914,6.206-9.885,6.592l0.277-3.96L265.3,149.574z"/>
		</g>
	</g>
	<g>
		<g>
			<path style="fill:#F98575;" d="M252.344,135.146c0,0-3.113,10.346-0.902,15.682c2.211,5.336,7.138,3.862,10.02,2.433
				c2.882-1.429,4.057-3.443,4.057-3.443s2.927,0.615,4.493-2.225c1.567-2.841,0.048-5.705-1.641-6.2
				c-1.688-0.495-3.458,0.894-3.458,0.894l1.153-3.036C266.067,139.249,258.026,125.489,252.344,135.146z"/>
		</g>
	</g>
	<g>
		<path d="M265.619,146.584c-0.103,0-0.206-0.042-0.28-0.126c-0.138-0.155-0.124-0.392,0.031-0.53l3.294-2.934
			c0.154-0.138,0.391-0.124,0.53,0.031c0.138,0.155,0.124,0.392-0.031,0.53l-3.294,2.934
			C265.797,146.553,265.708,146.584,265.619,146.584z"/>
	</g>
	<g>
		<path d="M268.861,146.2c-0.019,0-0.037-0.001-0.056-0.004l-2.409-0.358c-0.205-0.031-0.346-0.221-0.316-0.426
			c0.031-0.205,0.222-0.344,0.426-0.316l2.409,0.358c0.205,0.031,0.346,0.221,0.316,0.426
			C269.204,146.066,269.044,146.2,268.861,146.2z"/>
	</g>
	<g>
		<path d="M259.202,139.122c-0.142,0-0.277-0.081-0.34-0.218c-0.668-1.446-2.83-0.676-2.852-0.669
			c-0.194,0.071-0.41-0.029-0.481-0.223c-0.071-0.194,0.029-0.41,0.223-0.481c0.977-0.357,3.025-0.596,3.79,1.059
			c0.087,0.188,0.005,0.411-0.183,0.497C259.309,139.11,259.255,139.122,259.202,139.122z"/>
	</g>
	<g>
		<path d="M251.662,139.114c-0.095,0-0.19-0.036-0.263-0.107c-0.148-0.145-0.15-0.382-0.005-0.53
			c0.326-0.332,1.192-1.212,1.662-0.768c0.15,0.143,0.157,0.38,0.015,0.53c-0.092,0.097-0.225,0.131-0.345,0.11
			c-0.078,0.032-0.314,0.162-0.796,0.653C251.856,139.076,251.759,139.114,251.662,139.114z"/>
	</g>
	<g>
		<path d="M253.779,146.496c-0.102,0-0.202-0.041-0.276-0.122c-1.443-1.573,0.789-4.467,0.885-4.59
			c0.128-0.164,0.363-0.192,0.526-0.064c0.163,0.128,0.192,0.363,0.064,0.526c-0.542,0.696-1.766,2.702-0.923,3.621
			c0.14,0.152,0.13,0.39-0.023,0.53C253.961,146.463,253.87,146.496,253.779,146.496z"/>
	</g>
	<g>
		<path d="M252.095,142.909c-0.02,0-0.041-0.002-0.061-0.005c-0.205-0.034-0.343-0.226-0.309-0.431l0.305-1.865
			c0.034-0.204,0.229-0.343,0.431-0.31c0.205,0.034,0.343,0.226,0.31,0.431l-0.305,1.865
			C252.434,142.778,252.275,142.909,252.095,142.909z"/>
	</g>
	<g>
		<path d="M257.108,142.483c-0.02,0-0.041-0.001-0.061-0.005c-0.205-0.034-0.343-0.227-0.31-0.431l0.306-1.865
			c0.034-0.204,0.225-0.343,0.431-0.31c0.205,0.034,0.343,0.227,0.31,0.431l-0.306,1.865
			C257.448,142.353,257.288,142.483,257.108,142.483z"/>
	</g>
	<g>
		<path d="M251.745,137.467c0,0,0.692-1.679,2.663-1.899c1.971-0.22,3.268,1.049,3.268,1.049s-0.518,3.411,2.348,4.895
			c2.866,1.484,4.89,0.774,4.89,0.774l1.873-0.896l1.13-2.992l-6.261-5.476l-7.685-3.083l-3.359,3.758L251.745,137.467z"/>
	</g>
	<g>
		<path style="fill:#FFA63B;" d="M239.645,198.363c-0.242-0.021-0.393-0.204-0.374-0.41l0.952-10.17
			c0.02-0.206,0.194-0.359,0.409-0.338c0.206,0.02,0.357,0.202,0.338,0.409l-0.952,10.17
			C239.999,198.217,239.836,198.363,239.645,198.363z"/>
	</g>
	<g>
		<path style="fill:#FFA63B;" d="M280.801,195.687c-0.178,0-0.336-0.127-0.369-0.309l-1.667-9.313
			c-0.037-0.204,0.099-0.398,0.303-0.435c0.203-0.035,0.398,0.099,0.435,0.303l1.667,9.313c0.037,0.204-0.099,0.398-0.303,0.435
			C280.846,195.685,280.823,195.687,280.801,195.687z"/>
	</g>
	<g>
		<path style="fill:#F98575;" d="M265.652,157.907c0,0-4.63,4.609-7.581,7.041l-3.165-7.352l6.538-1.306L265.652,157.907z"/>
	</g>
	<g>
		<path style="fill:#FFA63B;" d="M250.593,169.516c-0.15,0-0.292-0.091-0.35-0.239c-0.075-0.193,0.021-0.41,0.214-0.485
			c9.14-3.555,14.839-11.035,14.896-11.11c0.124-0.165,0.357-0.2,0.525-0.074c0.165,0.124,0.199,0.36,0.074,0.525
			c-0.058,0.077-5.886,7.726-15.224,11.358C250.684,169.508,250.638,169.516,250.593,169.516z"/>
	</g>
	<g>
		<path style="fill:#FFA63B;" d="M258.072,165.323c-0.121,0-0.24-0.058-0.312-0.166c-1.559-2.323-3.145-7.238-3.211-7.446
			c-0.064-0.197,0.045-0.409,0.242-0.472c0.196-0.063,0.409,0.045,0.472,0.242c0.016,0.05,1.62,5.023,3.12,7.258
			c0.115,0.172,0.069,0.405-0.103,0.52C258.216,165.303,258.143,165.323,258.072,165.323z"/>
	</g>
	<g>
		<path style="fill:#F98575;" d="M301.994,193.987c0,0,4.456,15.307-9.609,17.765c-14.065,2.458-31.736,1.342-31.736,1.342
			l-1.578-13.052l24.662-5.581L301.994,193.987z"/>
	</g>
	<g>
		<path style="fill:#FFFFFF;" d="M255.479,283.867c-0.203,0-0.37-0.162-0.375-0.366l-1.126-48.292l-12.376-7.679
			c-0.176-0.109-0.23-0.34-0.121-0.516c0.11-0.177,0.34-0.23,0.517-0.121l12.548,7.785c0.107,0.066,0.174,0.183,0.177,0.31
			l1.131,48.495c0.005,0.207-0.159,0.379-0.366,0.384C255.484,283.867,255.481,283.867,255.479,283.867z"/>
	</g>
	<g>
		<path d="M255.479,150.316c-0.04,0-0.079-0.002-0.119-0.008c-0.979-0.142-1.857-1-1.894-1.036
			c-0.093-0.092-0.132-0.227-0.101-0.355c0.031-0.128,0.126-0.23,0.251-0.27l3.846-1.221c0.146-0.046,0.307,0.001,0.405,0.121
			c0.097,0.12,0.111,0.287,0.035,0.421C257.581,148.534,256.488,150.316,255.479,150.316z M254.51,149.151
			c0.269,0.182,0.613,0.365,0.957,0.415c0.257,0.04,0.756-0.467,1.225-1.108L254.51,149.151z"/>
	</g>
	<g>
		<g>
			<path style="fill:#FFFFFF;" d="M236.529,204.148c-0.09,0-0.181-0.033-0.251-0.101l-3.621-3.448
				c-0.145-0.139-0.151-0.369-0.012-0.515c0.138-0.145,0.37-0.151,0.515-0.012l3.621,3.448c0.145,0.139,0.151,0.369,0.012,0.515
				C236.722,204.11,236.625,204.148,236.529,204.148z"/>
		</g>
		<g>
			<path style="fill:#E0DFE5;" d="M251.666,218.201c-0.497,0.522-1.323,0.542-1.845,0.045l-13.558-12.913
				c-0.522-0.497-0.542-1.323-0.045-1.845c0.497-0.522,1.323-0.542,1.845-0.045l13.558,12.913
				C252.143,216.853,252.163,217.679,251.666,218.201z"/>
		</g>
	</g>
	<g>
		<path style="fill:#F98575;" d="M259.07,200.042c0,0-15.409,3.99-17.821,5.986c-2.412,1.996-5.828,9.622-3.668,10.731
			c1.36,0.698,3.721-1.721,3.721-1.721s5.674,6.96,11.51,3.396c6.178-3.774,8.96-6.195,8.96-6.195L259.07,200.042z"/>
	</g>
	<g>
		<path style="fill:#F98575;" d="M239.829,205.125c0,0,2.262-1.892,3.49-2.336c2.277-0.822,8.131-0.618,8.131-0.618l-10.367,4.413
			L239.829,205.125z"/>
	</g>
	<g>
		<path d="M239.945,208.359c-0.081,0-0.161-0.026-0.229-0.081c-0.157-0.126-0.181-0.355-0.055-0.512l2.275-2.821
			c0.126-0.159,0.355-0.182,0.512-0.055c0.157,0.126,0.181,0.355,0.055,0.512l-2.275,2.821
			C240.157,208.314,240.051,208.359,239.945,208.359z"/>
	</g>
	<g>
		<path d="M241.303,215.402c-0.108,0-0.215-0.048-0.287-0.14c-0.124-0.158-0.097-0.387,0.061-0.511l1.151-0.904
			c0.159-0.126,0.386-0.097,0.512,0.061c0.124,0.158,0.097,0.387-0.061,0.511l-1.151,0.904
			C241.461,215.377,241.382,215.402,241.303,215.402z"/>
	</g>
</g>
<g>
	<g>
		<path style="fill:#B7594F;" d="M393.813,310.996h-71.145c-3.95,0-7.151-3.202-7.151-7.151v-0.189c0-3.949,3.202-7.151,7.151-7.151
			h71.145c3.95,0,7.151,3.202,7.151,7.151v0.189C400.965,307.795,397.763,310.996,393.813,310.996z"/>
	</g>
	<g>
		<path style="fill:#B7594F;" d="M325.552,370.089c1.373,0,2.486-1.113,2.486-2.486v-60.66c0-1.373-1.113-2.487-2.486-2.487
			s-2.487,1.113-2.487,2.487v60.66C323.065,368.975,324.178,370.089,325.552,370.089z"/>
	</g>
	<g>
		<path style="fill:#B7594F;" d="M390.835,370.089c1.373,0,2.487-1.113,2.487-2.486v-60.66c0-1.373-1.113-2.487-2.487-2.487
			c-1.373,0-2.487,1.113-2.487,2.487v60.66C388.348,368.975,389.462,370.089,390.835,370.089z"/>
	</g>
</g>
<g>
	<path style="fill:#AD7473;" d="M358.473,262.052H134.062c-3.654,0-6.616-2.962-6.616-6.616c0-3.654,2.962-6.616,6.616-6.616
		h224.411c3.654,0,6.616,2.962,6.616,6.616C365.089,259.09,362.127,262.052,358.473,262.052z"/>
</g>
<g>
	<path style="fill:#AD7473;" d="M152.864,370.191c-2.339,0-4.235-1.896-4.235-4.235V260.418c0-2.339,1.896-4.235,4.235-4.235
		c2.339,0,4.235,1.896,4.235,4.235v105.538C157.098,368.295,155.202,370.191,152.864,370.191z"/>
</g>
<g>
	<path style="fill:#AD7473;" d="M339.672,371.191c-2.339,0-4.235-1.896-4.235-4.235V261.418c0-2.339,1.896-4.235,4.235-4.235
		c2.339,0,4.235,1.896,4.235,4.235v105.538C343.906,369.295,342.01,371.191,339.672,371.191z"/>
</g>
<g>
	<path style="fill:#EF9D54;" d="M239.611,250.516h-96.176c-0.644,0-1.165-0.522-1.165-1.166c0-0.644,0.522-1.165,1.165-1.165h96.176
		c0.644,0,1.165,0.522,1.165,1.165C240.777,249.994,240.255,250.516,239.611,250.516z"/>
</g>
<g>
	<g>
		<path style="fill:#C17259;" d="M179.048,234.651c0,0,4.363,0.147,5.85,4.393c1.487,4.246-2.433,7.629-2.433,7.629
			s4.828,0.193,4.908,2.058c0.08,1.865-16.903,0.406-18.808-0.353c-1.904-0.759,0.684-3.12,0.684-3.12s-5.597-5.297-0.423-10.799
			C174,228.958,179.048,234.651,179.048,234.651z"/>
	</g>
	<g>
		
			<ellipse transform="matrix(0.0188 -0.9998 0.9998 0.0188 -51.0107 414.1248)" style="fill:#C17259;" cx="185.479" cy="233.051" rx="13.366" ry="17.925"/>
	</g>
	<g>
		<path style="fill:#C17259;" d="M175.698,215.36c0.054,0.203,0.137,0.393,0.221,0.568c2.251,4.901,12.773,5.2,13.626,5.216
			c0.043,0.001,0.058,0.001,0.058,0.001l13.619-6.787c0,0-8.223-6.474-18.682-5.47c-3.245,0.315-4.746,0.923-5.309,1.607
			c-1.022,1.282,1.349,2.86,2.15,3.337c0.043,0.03,0.086,0.045,0.129,0.075c0.071,0.045,0.115,0.06,0.115,0.06
			S174.826,212.509,175.698,215.36z"/>
	</g>
	<g>
		<path style="fill:#C17259;" d="M164.221,233.231c-0.033,1.766,1.372,3.225,3.138,3.258c1.766,0.033,3.225-1.372,3.258-3.138
			c0.033-1.766-1.372-3.225-3.138-3.258S164.254,231.465,164.221,233.231z"/>
	</g>
	<g>
		<path style="fill:#F9AD62;" d="M181.381,213.832c0.043,0.03,0.086,0.045,0.129,0.075c4.543,2.182,11.284,4.391,11.284,4.391
			l0.562-1.753c0.293-0.197-10.625-5.262-14.125-6.05C178.209,211.777,180.58,213.354,181.381,213.832z"/>
	</g>
	<g>
		<path style="fill:#F9AD62;" d="M175.919,215.928c2.251,4.901,12.773,5.2,13.626,5.216l-0.534-0.834
			C189.01,220.309,178.809,216.04,175.919,215.928z"/>
	</g>
	<g>
		<path style="fill:#C17259;" d="M188.385,221.118c-0.093,4.977,3.865,9.087,8.842,9.18c4.977,0.093,9.087-3.865,9.18-8.842
			c0.093-4.977-3.865-9.087-8.842-9.18C192.589,212.183,188.478,216.141,188.385,221.118z"/>
	</g>
	<g>
		<rect x="201.243" y="217.546" transform="matrix(0.0183 -0.9998 0.9998 0.0183 -19.1336 416.3555)" width="2.411" height="0.75"/>
	</g>
	<g>
		<rect x="194.317" y="217.415" transform="matrix(0.0183 -0.9998 0.9998 0.0183 -25.8035 409.302)" width="2.41" height="0.75"/>
	</g>
	<g>
		<path d="M200.155,221.813c-0.009,0-1.695-0.031-1.695-0.031c-0.262-0.005-0.47-0.221-0.465-0.482s0.234-0.483,0.483-0.465
			l1.686,0.031c0.262,0.005,0.47,0.221,0.465,0.482C200.624,221.606,200.412,221.813,200.155,221.813z"/>
	</g>
	<g>
		<polygon points="198.315,223.303 197.711,222.857 199.39,220.586 200.463,222.965 199.78,223.273 199.233,222.061 		"/>
	</g>
	<g>
		<path style="fill:#C17259;" d="M202.088,237.141l-3.438,8.227c0,0,3.71,1.683,1.311,3.314c-2.4,1.631-7.942-0.029-9.022-1.707
			c-1.08-1.678,1.953-5.418,1.953-5.418L202.088,237.141z"/>
	</g>
	<g>
		<path style="fill:#C17259;" d="M197.631,243.473c0,0,8.158,2.222,5.504,4.163c-2.654,1.941-6.721-1.011-6.721-1.011
			L197.631,243.473z"/>
	</g>
</g>
<g>
	<g>
		<path style="fill:#B7594F;" d="M341.26,246.537c-0.167,0-0.337-0.027-0.503-0.087c-0.78-0.278-1.189-1.136-0.91-1.916
			l16.325-45.836l-33.885-37.737l-12.16,7.776c-0.698,0.445-1.626,0.242-2.072-0.456c-0.446-0.698-0.242-1.625,0.456-2.072
			l13.233-8.462c0.617-0.396,1.433-0.286,1.924,0.262l35.333,39.349c0.367,0.409,0.482,0.987,0.297,1.505l-16.625,46.676
			C342.454,246.154,341.876,246.537,341.26,246.537z"/>
	</g>
	<g>
		<path style="fill:#FFB655;" d="M355.473,248.82h-28.428c0-4.179,3.388-7.567,7.567-7.567h13.294
			C352.085,241.253,355.473,244.641,355.473,248.82L355.473,248.82z"/>
	</g>
	<g>
		<path style="fill:#FFB655;" d="M316.45,193.29l-29.305-38.296c5.63-4.308,13.686-3.236,17.994,2.393l13.704,17.908
			C323.151,180.926,322.08,188.982,316.45,193.29L316.45,193.29z"/>
	</g>
	<g>
		<path style="fill:#ED8526;" d="M316.576,193.193c-0.779,0.597-7.971-7.493-16.064-18.068
			c-8.092-10.575-14.02-19.631-13.241-20.228c0.78-0.596,7.971,7.493,16.064,18.068C311.428,183.54,317.356,192.596,316.576,193.193
			z"/>
	</g>
</g>
<g style="opacity:0.54;">
	<ellipse style="fill:#E1DAE5;" cx="555.357" cy="363.383" rx="84.589" ry="4.66"/>
</g>
<g>
	<g>
		<path style="fill:#F98575;" d="M578.803,209.465l5.618,25.777c0,0,4.055,14.569,4.056,18.063c0.001,3.494-6.366,8.348-6.366,8.348
			l-1.218-5.755c0,0,0.517-3.209-0.244-5.706c-0.761-2.497-2.157,0.538-2.157,0.538l-5.692-6.758l-9.86-29.614L578.803,209.465z"/>
	</g>
	<g>
		<path d="M580.649,250.482c-0.025,0-0.051-0.004-0.077-0.011c-0.154-0.042-0.246-0.202-0.203-0.357
			c0.021-0.074,2.008-7.502-1.19-9.913c-0.129-0.097-0.154-0.279-0.058-0.407c0.098-0.13,0.281-0.153,0.407-0.058
			c3.512,2.648,1.488,10.211,1.4,10.532C580.894,250.398,580.777,250.482,580.649,250.482z"/>
	</g>
	<g>
		<path d="M559.241,151.114c0,0,8.945,10.538,3.222,15.791c-5.723,5.253-12.12-2.796-12.12-2.796L559.241,151.114z"/>
	</g>
	<g>
		<path d="M542.791,145.66c-0.233-0.334-9.832,1.85-13.852,13.312c-4.021,11.462,5.085,15.407,5.085,15.407l14.477-4.89
			l-0.786-23.434L542.791,145.66z"/>
	</g>
	<g>
		<polygon style="fill:#F98575;" points="548.047,334.526 548.047,344.047 529.16,344.047 526.955,340.688 526.955,332.682 		"/>
	</g>
	<g>
		<polygon style="fill:#F98575;" points="580.685,334.526 580.685,344.047 561.799,344.047 559.594,344.047 559.594,332.682 		"/>
	</g>
	<g>
		<path style="fill:#933F37;" d="M583.161,343.723c0,0,26.501,16.182,27.737,19.517c1.236,3.335-2.64,4.593-4.442,4.716
			c-1.802,0.124-46.55-3.393-46.55-3.393l-1.56-12.381c0,0,0.788-10.363,1.247-10.664c0.459-0.301,22.564,0.47,22.564,0.47
			L583.161,343.723z"/>
	</g>
	<g>
		<path style="fill:#AD4D40;" d="M547.731,340.977c0,0,17.226,16.08,17.792,19.334c0.565,3.254-1.305,4.842-2.466,5.287
			c-1.161,0.444-23.945-0.126-30.203-0.45c-6.258-0.324-7.301-4.532-7.848-8.215c-0.546-3.683,1.949-16.243,1.949-16.243
			L547.731,340.977z"/>
	</g>
	<g>
		<path style="fill:#507849;" d="M570.159,214.912c0,0,18.822,45.106,21.347,54.318c2.525,9.212-1.477,67.546-1.477,67.546
			l-29.742,0.363l-2.066-31.059c0,0,3.09-13.161,3.496-17.109c0.406-3.948-3.496-15.203-3.496-15.203l-1.762-40.335l10.83-9.651
			L570.159,214.912z"/>
	</g>
	<g>
		<path style="fill:#507849;" d="M530.785,211.605c0,0-3.549,18.882-4.304,44.677c-0.755,25.795-2.056,80.495-2.056,80.495
			s16.349,1.416,26.289,0.889c9.94-0.526,9.94-0.526,9.94-0.526l-1.51-98.633l13.923-8.826l-4.111-14.001l-35.158,1.059
			L530.785,211.605z"/>
	</g>
	<g>
		<path style="fill:#F9AD62;" d="M562.32,287.97c-0.126,0-0.246-0.063-0.316-0.173c-0.084-0.13-0.079-0.299,0.013-0.424
			c0.176-0.24,4.342-5.891,7.398-6.04c0.703-0.052,1.327,0.22,1.81,0.76c0.575,0.643,0.545,1.233,0.418,1.616
			c-0.812,2.457-8.386,4.076-9.247,4.253C562.37,287.967,562.346,287.97,562.32,287.97z M569.542,282.079
			c-0.03,0-0.06,0.001-0.091,0.003c-2.062,0.101-4.933,3.358-6.192,4.918c2.628-0.631,7.172-2.014,7.672-3.526
			c0.061-0.184,0.099-0.474-0.265-0.881C570.357,282.248,569.989,282.079,569.542,282.079z"/>
	</g>
	<g>
		<path style="fill:#F9AD62;" d="M553.052,330.505h-28.103c-0.207,0-0.375-0.168-0.375-0.375s0.168-0.375,0.375-0.375h28.103
			c0.207,0,0.375,0.168,0.375,0.375S553.259,330.505,553.052,330.505z"/>
	</g>
	<g>
		<path style="fill:#F9AD62;" d="M590.032,330.505H562.32c-0.207,0-0.375-0.168-0.375-0.375s0.168-0.375,0.375-0.375h27.712
			c0.207,0,0.375,0.168,0.375,0.375S590.239,330.505,590.032,330.505z"/>
	</g>
	<g>
		<path style="fill:#F9AD62;" d="M559.727,277.983c-0.217-0.005-0.38-0.178-0.375-0.385l0.752-29.811
			c0.003-0.115,0.059-0.223,0.151-0.291l11.586-8.599c0.166-0.122,0.401-0.089,0.524,0.077c0.124,0.166,0.089,0.401-0.077,0.524
			l-11.439,8.49l-0.747,29.628C560.097,277.821,559.93,277.983,559.727,277.983z"/>
	</g>
	<g>
		<path style="fill:#F9AD62;" d="M531.969,237.123c-0.205,0-0.372-0.165-0.375-0.37c-0.003-0.207,0.163-0.377,0.37-0.38
			c6.164-0.082,6.789-6.328,6.813-6.595c0.019-0.205,0.192-0.355,0.407-0.34c0.206,0.018,0.358,0.199,0.341,0.405
			c-0.007,0.072-0.703,7.188-7.551,7.279C531.972,237.123,531.971,237.123,531.969,237.123z"/>
	</g>
	<g>
		<path style="fill:#FFFFFF;" d="M586.629,353.6c-0.137,0-0.265-0.075-0.33-0.198c-0.073-0.136-0.056-0.304,0.046-0.421l2.871-3.344
			h-10.659c-0.183,0-0.339-0.132-0.37-0.311c-0.03-0.181,0.073-0.356,0.245-0.417l8.632-3.042c0.199-0.071,0.41,0.034,0.478,0.228
			c0.069,0.195-0.033,0.41-0.228,0.479l-6.564,2.313h9.283c0.147,0,0.279,0.085,0.341,0.219c0.062,0.133,0.039,0.289-0.057,0.4
			l-2.771,3.228l8.672-1.074c0.217-0.026,0.393,0.121,0.418,0.326c0.025,0.205-0.12,0.392-0.326,0.418l-9.634,1.193
			C586.659,353.599,586.644,353.6,586.629,353.6z"/>
	</g>
	<g>
		<path style="fill:#FFFFFF;" d="M550.36,352.525h-12.441c-0.181,0-0.336-0.129-0.369-0.308c-0.032-0.178,0.067-0.354,0.236-0.418
			l8.904-3.379l-9.263-1.833c-0.188-0.038-0.318-0.213-0.3-0.404c0.018-0.192,0.18-0.339,0.373-0.339h10.546
			c0.207,0,0.375,0.168,0.375,0.375c0,0.207-0.168,0.375-0.375,0.375h-6.721l6.794,1.345c0.164,0.033,0.286,0.17,0.301,0.337
			c0.014,0.167-0.085,0.322-0.241,0.382l-8.215,3.117h10.396c0.207,0,0.375,0.168,0.375,0.375S550.567,352.525,550.36,352.525z"/>
	</g>
	<g>
		<path style="fill:#5D8455;" d="M508.595,200.658c0,0,5.945-22.466,18.611-31.255c12.666-8.788,36.139-6.806,41.874-1.874
			c5.441,4.679,12.924,30.048,12.924,30.048l-9.822,9.822l1.595,14.979l-45.88,2.973l0.085-24.198L508.595,200.658z"/>
	</g>
	<g>
		<path style="fill:#FFFFFF;" d="M567.781,198.614c-0.188,0-0.35-0.141-0.372-0.332l-2.249-19.197
			c-0.024-0.206,0.123-0.392,0.328-0.416c0.217-0.021,0.392,0.125,0.416,0.329l2.249,19.197c0.024,0.206-0.123,0.392-0.328,0.416
			C567.81,198.613,567.795,198.614,567.781,198.614z"/>
	</g>
	<g>
		<path style="fill:#E07722;" d="M545.813,212.803l17.772,10.847c0.646,0.394,1.652,0.229,2.246-0.37l24.013-24.206
			c0.594-0.599,0.552-1.404-0.094-1.798l-17.772-10.847c-0.646-0.394-1.652-0.229-2.246,0.37l-24.013,24.206
			C545.124,211.604,545.166,212.409,545.813,212.803z"/>
	</g>
	<g>
		<path style="fill:#FFB655;" d="M547.891,214.065l17.772,10.847c0.646,0.395,1.652,0.229,2.246-0.37l24.013-24.206
			c0.594-0.599,0.552-1.404-0.094-1.799l-17.772-10.847c-0.646-0.394-1.652-0.229-2.246,0.37l-24.013,24.206
			C547.203,212.865,547.245,213.67,547.891,214.065z"/>
	</g>
	<g>
		<path style="fill:#FFFFFF;" d="M582.631,198.615c-0.526,0-1.055-0.14-1.526-0.426l-4.329-2.628
			c-0.659-0.4-1.099-1.075-1.204-1.851c-0.11-0.808,0.149-1.615,0.712-2.215l1.507-1.604c0.143-0.151,0.38-0.157,0.53-0.017
			c0.15,0.142,0.158,0.379,0.017,0.53l-1.507,1.605c-0.407,0.434-0.596,1.018-0.516,1.6c0.075,0.551,0.385,1.029,0.85,1.312
			l4.329,2.627c0.881,0.535,2.022,0.381,2.776-0.371l2.113-2.11c0.146-0.146,0.384-0.146,0.53,0c0.146,0.146,0.145,0.384-0.001,0.53
			l-2.113,2.11C584.201,198.304,583.417,198.615,582.631,198.615z"/>
	</g>
	<g>
		<path style="fill:#F98575;" d="M546.619,193.318c0.926-1.12,2.321-1.736,3.772-1.647c2.367,0.146,5.943,0.423,6.768,0.806
			c1.26,0.584,4.123,2.888,4.123,2.888l-1.18,1.67c0,0,10.887,5.684,10.006,7.925c-0.6,1.527-5.43-0.66-5.43-0.66
			s4.83,2.677,3.991,4.35c-0.839,1.674-7.064-0.961-7.064-0.961s4.801,3.079,2.254,3.836c-2.547,0.757-19.894-4.011-20.803-9.118
			C542.459,199.048,544.887,195.413,546.619,193.318z"/>
	</g>
	<g>
		<path d="M560.517,197.26c-0.068,0-0.137-0.018-0.198-0.057l-2.772-1.724c-0.176-0.109-0.23-0.34-0.12-0.517
			c0.109-0.176,0.342-0.229,0.517-0.12l2.772,1.724c0.176,0.109,0.23,0.34,0.12,0.517
			C560.765,197.197,560.642,197.26,560.517,197.26z"/>
	</g>
	<g>
		<path d="M565.532,204.974c-0.061,0-0.121-0.015-0.178-0.045l-7.266-3.898c-0.182-0.098-0.251-0.325-0.152-0.507
			c0.097-0.183,0.325-0.251,0.508-0.153l7.266,3.899c0.182,0.098,0.251,0.325,0.152,0.508
			C565.795,204.902,565.666,204.974,565.532,204.974z"/>
	</g>
	<g>
		<path style="fill:#FFFFFF;" d="M534.527,198.888c-0.019,0-0.037-0.001-0.057-0.004c-0.204-0.031-0.346-0.222-0.314-0.427
			l1.407-9.243c0.031-0.205,0.214-0.348,0.428-0.314c0.204,0.031,0.346,0.222,0.314,0.427l-1.407,9.243
			C534.87,198.755,534.71,198.888,534.527,198.888z"/>
	</g>
	<g>
		<path d="M562.467,208.626c-0.06,0-0.122-0.015-0.179-0.046l-7.375-4.009c-0.183-0.099-0.25-0.326-0.15-0.508
			c0.098-0.182,0.327-0.25,0.508-0.15l7.375,4.009c0.183,0.099,0.25,0.326,0.15,0.508
			C562.729,208.555,562.6,208.626,562.467,208.626z"/>
	</g>
	<g>
		<path style="fill:#F98575;" d="M510.019,200.694c0,0-4.009,15.235,9.949,17.303c13.958,2.068,26.522-11.87,26.522-11.87
			l1.739-14.047l-27.616,8.885L510.019,200.694z"/>
	</g>
	<g>
		<g>
			<path d="M556.789,137.235c0,0-7.987-5.707-13.266,0.737c-5.126,6.257-0.717,13.803-0.717,13.803l11.572-8.231L556.789,137.235z"
				/>
		</g>
	</g>
	<g>
		<g>
			<path style="fill:#F98575;" d="M545.84,155.957l-0.689,7.673c0,0,1.186,2.33,5.642,3.098c3.319,0.572,4.511-1.775,4.511-1.775
				l-0.067-2.232l-0.12-3.831l-7.945-2.51L545.84,155.957z"/>
		</g>
	</g>
	<g>
		<g>
			<path d="M547.173,156.38c0.001,0.211,0.058,0.466,0.156,0.76c1.373,3.987,5.992,5.234,7.908,5.581l-0.12-3.831L547.173,156.38z"
				/>
		</g>
	</g>
	<g>
		<g>
			<path style="fill:#F98575;" d="M558.399,141.554c0,0,3.163,9.982,1.096,15.184c-2.067,5.202-6.862,3.844-9.675,2.5
				c-2.813-1.344-3.981-3.279-3.981-3.279s-2.827,0.638-4.386-2.093c-1.558-2.731-0.127-5.527,1.502-6.031
				c1.629-0.504,3.364,0.817,3.364,0.817l-1.16-2.926C545.159,145.725,552.756,132.277,558.399,141.554z"/>
		</g>
	</g>
	<g>
		<g>
			<path d="M546.32,148.651c0,0,4.004,1.299,7.376-2.935c3.372-4.234,3.327-6.137,3.327-6.137l2.295,5.036
				c0,0,1.01-3.192-0.056-5.424c-1.066-2.232-2.472-1.956-2.472-1.956l-9.298,1.218l-3.214,6.97L546.32,148.651z"/>
		</g>
	</g>
	<g>
		<path d="M559.317,144.99c-0.026,0-0.054-0.003-0.081-0.009l-1.103-0.243c-0.202-0.044-0.33-0.245-0.285-0.447
			c0.045-0.202,0.243-0.33,0.447-0.286l1.103,0.243c0.202,0.044,0.33,0.245,0.285,0.447
			C559.644,144.871,559.49,144.99,559.317,144.99z"/>
	</g>
	<g>
		<path d="M553.918,144.658c-0.199,0-0.364-0.156-0.375-0.356c-0.01-0.207,0.149-0.383,0.357-0.393l1.876-0.093
			c0.201-0.016,0.383,0.149,0.394,0.356c0.01,0.207-0.149,0.383-0.357,0.393l-1.876,0.093
			C553.931,144.658,553.924,144.658,553.918,144.658z"/>
	</g>
	<g>
		<path d="M558.846,149.259c-0.185,0-0.347-0.137-0.372-0.326l-0.224-1.7c-0.015-0.111,0.021-0.223,0.098-0.305l0.832-0.893
			c0.143-0.151,0.379-0.16,0.53-0.018c0.151,0.141,0.159,0.378,0.019,0.53l-0.712,0.763l0.201,1.525
			c0.026,0.205-0.118,0.393-0.323,0.42C558.878,149.258,558.861,149.259,558.846,149.259z"/>
	</g>
	<g>
		<path d="M553.469,149.096c-0.186,0-0.347-0.137-0.372-0.326l-0.224-1.7c-0.015-0.111,0.021-0.223,0.098-0.305l0.832-0.893
			c0.142-0.152,0.379-0.16,0.53-0.019c0.151,0.141,0.159,0.378,0.018,0.53l-0.712,0.763l0.201,1.525
			c0.026,0.205-0.118,0.394-0.323,0.42C553.501,149.095,553.484,149.096,553.469,149.096z"/>
	</g>
	<g>
		<path d="M557.016,153.057c-0.033,0-0.067-0.004-0.1-0.014c-0.199-0.056-0.316-0.263-0.261-0.462
			c0.756-2.707-0.464-4.355-0.517-4.424c-0.125-0.164-0.094-0.399,0.07-0.525c0.163-0.124,0.397-0.097,0.524,0.068
			c0.062,0.08,1.505,1.998,0.645,5.082C557.331,152.948,557.181,153.057,557.016,153.057z"/>
	</g>
	<g>
		<path d="M545.6,153.162c-0.104,0-0.207-0.043-0.281-0.126l-2.731-3.086c-0.137-0.155-0.122-0.392,0.032-0.529
			c0.157-0.135,0.393-0.124,0.53,0.032l2.731,3.086c0.137,0.155,0.122,0.392-0.032,0.529
			C545.776,153.13,545.688,153.162,545.6,153.162z"/>
	</g>
	<g>
		<path d="M542.398,152.556c-0.155,0-0.301-0.098-0.354-0.253c-0.067-0.196,0.037-0.409,0.232-0.477l2.043-0.703
			c0.195-0.069,0.409,0.037,0.477,0.232c0.067,0.196-0.037,0.409-0.232,0.477l-2.043,0.703
			C542.48,152.55,542.438,152.556,542.398,152.556z"/>
	</g>
	<g>
		<path style="fill:#F98575;" d="M544.996,164.12c0,0,4.692,4.435,7.67,6.761l2.939-7.344l-6.492-1.122L544.996,164.12z"/>
	</g>
	<g>
		<path style="fill:#FFFFFF;" d="M560.161,175.206c-0.042,0-0.085-0.007-0.127-0.022c-9.321-3.35-15.337-11.125-15.396-11.203
			c-0.126-0.165-0.095-0.4,0.07-0.525c0.162-0.125,0.4-0.095,0.525,0.07c0.059,0.076,5.947,7.679,15.055,10.952
			c0.194,0.07,0.296,0.285,0.226,0.48C560.459,175.111,560.314,175.206,560.161,175.206z"/>
	</g>
	<g>
		<path style="fill:#FFFFFF;" d="M552.666,171.256c-0.069,0-0.139-0.019-0.201-0.058c-0.175-0.111-0.227-0.343-0.115-0.518
			c1.424-2.246,2.881-7.199,2.894-7.249c0.059-0.199,0.266-0.313,0.466-0.255c0.198,0.058,0.313,0.266,0.255,0.465
			c-0.061,0.207-1.501,5.104-2.982,7.44C552.911,171.195,552.79,171.256,552.666,171.256z"/>
	</g>
	<g>
		<path d="M555.189,155.598c-0.454,0-1.768-0.147-2.608-1.75c-0.097-0.184-0.025-0.41,0.158-0.506
			c0.183-0.097,0.409-0.026,0.506,0.158c0.761,1.45,1.971,1.351,2.02,1.346c0.224-0.01,0.39,0.129,0.411,0.333
			c0.023,0.205-0.124,0.389-0.328,0.412C555.336,155.592,555.279,155.598,555.189,155.598z"/>
	</g>
</g>
<g>
	<g>
		<path style="fill:#F98575;" d="M751.257,231.651c0,0-5.149,11.036-7.683,12.435c-2.534,1.399-13.504,6.539-14.48,6.763
			c-0.976,0.223-5.136-1.116-6.851,0c-1.715,1.116-3.724,9.72-3.724,9.72h27.944l19.156-8.465l-1.178-22.907L751.257,231.651z"/>
	</g>
	<g>
		<path style="fill:#B7594F;" d="M759.581,212.9l-10.126,19.741l13.171,4.367C762.626,237.008,766.266,215.355,759.581,212.9z"/>
	</g>
	<g>
		<path d="M784.233,180.341c0,0,10.06-3.574,14.334,3.092c4.274,6.666,3.304,35.169,3.304,35.169l-17.528-8.965l0.144-14.19
			L784.233,180.341z"/>
	</g>
	<g>
		<path style="fill:#D84427;" d="M702.098,324.844c0,0-17.909,8.578-23.204,13.579c-5.294,5-5.564,8.405-4.954,10.079
			c0.609,1.674,37.654,0.012,37.654,0.012s0.402-10.175,4.348-9.518c3.947,0.657,1.791,9.772,1.791,9.772l11.2-0.105
			c0,0,0.516-10.116-0.297-14.087c-0.877-4.284-3.364-10.07-3.364-10.07L702.098,324.844z"/>
	</g>
	<g>
		<path style="fill:#F98575;" d="M705.922,321.886c0,0-15.411,8.694-12.599,9.597c2.813,0.903,18.694,1.055,23.35-0.639
			c4.656-1.694,8.551-6.521,8.551-6.521l-10.569-5.004L705.922,321.886z"/>
	</g>
	<g>
		<polygon style="fill:#F98575;" points="725.225,324.323 727.224,315.495 708.283,311.648 705.536,325.642 		"/>
	</g>
	<g>
		<path style="fill:#D84427;" d="M747.909,315.186c0,0-10.99,16.539-12.977,23.546c-1.987,7.006-0.475,10.069,0.906,11.195
			c1.381,1.126,32.349-19.272,32.349-19.272s-4.866-8.945-1.14-10.402c3.726-1.457,6.542,7.476,6.542,7.476l9.566-5.826
			c0,0-4.737-8.954-7.469-11.948c-2.947-3.231-8.046-6.927-8.046-6.927L747.909,315.186z"/>
	</g>
	<g>
		<path style="fill:#F98575;" d="M749.678,310.687c0,0-8.785,15.36-5.907,14.695c2.878-0.665,16.597-8.667,19.729-12.506
			c3.131-3.839,4.006-9.98,4.006-9.98l-11.64,1.114L749.678,310.687z"/>
	</g>
	<g>
		<polygon style="fill:#F48462;" points="767.506,302.896 764.703,294.289 746.464,300.685 751.271,314.111 		"/>
	</g>
	<g>
		<polygon style="fill:#F9BF30;" points="754.894,267.032 771.131,300.584 740.42,311.452 731.384,294.873 740.458,267.032 		"/>
	</g>
	<g>
		<path style="fill:#F9BF30;" d="M794.582,248.997c0,0,1.265,21.553-3.581,25.535c-6.422,5.277-46.199,7.321-48.261,9.132
			s-9.43,35.414-9.43,35.414l-33.859-3.386c0,0,11.738-52.909,20.646-59.065c6.694-4.626,37.802-7.63,37.802-7.63H794.582z"/>
	</g>
	<g>
		<path style="fill:#FFB655;" d="M736.493,305.529c-0.028,0-0.058-0.004-0.087-0.012c-0.176-0.048-0.279-0.23-0.231-0.404
			c0.232-0.844,5.693-20.671,7.147-22.403c1.469-1.754,14.513-2.679,15.995-2.778c0.187-0.011,0.34,0.126,0.352,0.307
			c0.012,0.182-0.126,0.339-0.307,0.352c-5.71,0.383-14.558,1.378-15.535,2.544c-1.13,1.347-5.448,16.448-7.017,22.153
			C736.771,305.434,736.638,305.529,736.493,305.529z"/>
	</g>
	<g>
		<path style="fill:#FFB655;" d="M743.574,283.251c-0.059,0-0.118-0.016-0.171-0.047c-0.236-0.144-5.808-3.547-6.318-6.374
			c-0.114-0.631,0.021-1.195,0.4-1.677c0.449-0.568,0.942-0.626,1.271-0.568c2.262,0.371,4.841,7.423,5.128,8.227
			c0.047,0.131,0.006,0.277-0.103,0.365C743.723,283.227,743.648,283.251,743.574,283.251z M738.554,275.227
			c-0.143,0-0.333,0.059-0.551,0.335c-0.262,0.331-0.351,0.708-0.271,1.151c0.35,1.932,3.618,4.338,5.185,5.392
			c-1.117-2.866-2.995-6.661-4.267-6.87C738.621,275.23,738.589,275.227,738.554,275.227z"/>
	</g>
	<g>
		<path style="fill:#B7594F;" d="M759.581,212.9c0,0,3.045-6.981,8.73-8.229c7.985-1.752,19.096-2.53,30.205,5.415
			c9.713,6.946,11.402,25.595,11.402,25.595l-22.112,0.161l8.35,13.936c0,0-9.916,3.238-21.764,2.069
			c-11.848-1.17-16.469-3.529-16.469-3.529l0.348-13.989L759.581,212.9z"/>
	</g>
	<g>
		<path style="fill:#FFFFFF;" d="M758.598,234.733c-0.201,0-0.368-0.159-0.376-0.361c-0.328-8.021,1.987-17.076,2.011-17.167
			c0.052-0.2,0.253-0.327,0.459-0.27c0.201,0.052,0.322,0.257,0.27,0.459c-0.023,0.089-2.31,9.039-1.987,16.946
			c0.009,0.208-0.152,0.384-0.36,0.392C758.607,234.733,758.602,234.733,758.598,234.733z"/>
	</g>
	<g>
		<g>
			<g>
				<g>
					<path style="fill:#F98575;" d="M782.84,197.19l-0.196,7.815c0,0-1.466,2.211-6.047,2.468c-3.412,0.191-4.447-1.585-4.447-1.585
						l0.996-6.818l8.301-1.609L782.84,197.19z"/>
				</g>
			</g>
		</g>
	</g>
	<g>
		<g>
			<g>
				<g>
					<path d="M781.448,197.461c-0.025,0.213-0.112,0.463-0.246,0.748c-1.847,3.86-6.648,4.582-8.62,4.708l0.565-3.848
						L781.448,197.461z"/>
				</g>
			</g>
		</g>
	</g>
	<g>
		<g>
			<g>
				<g>
					<path style="fill:#F98575;" d="M771.851,181.214c0,0-4.347,9.695-2.867,15.18c1.48,5.484,6.472,4.671,9.464,3.642
						c2.992-1.029,4.393-2.844,4.393-2.844s2.776,0.971,4.664-1.601c1.888-2.572,0.769-5.557-0.815-6.254
						c-1.584-0.697-3.486,0.433-3.486,0.433l1.509-2.815C784.714,186.954,778.616,172.516,771.851,181.214z"/>
				</g>
			</g>
		</g>
	</g>
	<g>
		<g>
			<g>
				<g>
					<path d="M783.205,189.77c0,0-4.187,0.845-7.095-3.814c-2.909-4.659-2.641-6.573-2.641-6.573l-2.898,4.81
						c0,0-0.648-3.335,0.686-5.461s2.719-1.685,2.719-1.685l9.231,2.307l2.431,7.399L783.205,189.77z"/>
				</g>
			</g>
		</g>
	</g>
	<g>
		<path d="M772.183,193.655c-0.161,0-0.311-0.105-0.36-0.267c-0.648-2.115,0.845-4.254,0.908-4.344
			c0.12-0.17,0.354-0.209,0.525-0.09c0.169,0.12,0.21,0.355,0.09,0.525c-0.014,0.019-1.341,1.931-0.803,3.688
			c0.061,0.199-0.051,0.41-0.25,0.471C772.256,193.65,772.219,193.655,772.183,193.655z"/>
	</g>
	<g>
		<path d="M776.515,186.949c-0.154,0-0.299-0.096-0.354-0.249c-0.528-1.469-1.299-1.313-1.331-1.305
			c-0.197,0.043-0.403-0.076-0.452-0.275c-0.05-0.198,0.063-0.399,0.261-0.453c0.06-0.018,1.458-0.373,2.232,1.778
			c0.07,0.196-0.031,0.412-0.228,0.482C776.6,186.942,776.557,186.949,776.515,186.949z"/>
	</g>
	<g>
		<path d="M770.374,185.452c-0.03,0-0.061-0.004-0.091-0.011c-0.201-0.05-0.324-0.251-0.275-0.453
			c0.02-0.08,0.207-0.788,0.824-1.035c0.403-0.162,0.861-0.081,1.359,0.24c0.176,0.112,0.227,0.346,0.114,0.521
			c-0.112,0.176-0.348,0.226-0.521,0.113c-0.194-0.124-0.467-0.257-0.671-0.175c-0.222,0.087-0.346,0.402-0.375,0.516
			C770.696,185.337,770.542,185.452,770.374,185.452z"/>
	</g>
	<g>
		<path d="M783.606,194.404c-0.093,0-0.187-0.034-0.26-0.103c-0.15-0.144-0.156-0.382-0.014-0.533l2.652-2.795
			c0.143-0.15,0.382-0.156,0.533-0.014c0.15,0.144,0.156,0.382,0.014,0.533l-2.652,2.795
			C783.806,194.365,783.706,194.404,783.606,194.404z"/>
	</g>
	<g>
		<path d="M786.408,193.661c-0.018,0-0.038-0.001-0.058-0.005l-1.829-0.282c-0.205-0.032-0.347-0.224-0.314-0.43
			c0.031-0.205,0.212-0.352,0.43-0.314l1.829,0.282c0.205,0.032,0.347,0.224,0.314,0.43
			C786.752,193.528,786.592,193.661,786.408,193.661z"/>
	</g>
	<g>
		<path d="M770.477,189.842c-0.018,0-0.036-0.001-0.055-0.004c-0.206-0.03-0.349-0.222-0.318-0.427l0.239-1.621l-0.577-0.714
			c-0.131-0.162-0.105-0.399,0.057-0.53c0.159-0.131,0.398-0.106,0.529,0.056l0.681,0.842c0.067,0.082,0.095,0.188,0.08,0.292
			l-0.263,1.784C770.822,189.707,770.662,189.842,770.477,189.842z"/>
	</g>
	<g>
		<path d="M775.787,190.268c-0.254-0.03-0.4-0.218-0.374-0.425l0.205-1.604l-0.864-0.851c-0.147-0.146-0.149-0.385-0.004-0.533
			c0.146-0.149,0.385-0.151,0.533-0.004l0.997,0.982c0.083,0.083,0.124,0.2,0.109,0.316l-0.229,1.789
			C776.137,190.129,775.975,190.268,775.787,190.268z"/>
	</g>
	<g>
		<path d="M773.501,197.129c-0.985,0-2.185-0.833-2.334-0.94c-0.122-0.087-0.182-0.239-0.149-0.386
			c0.032-0.147,0.148-0.261,0.296-0.29l4.24-0.835c0.143-0.03,0.302,0.034,0.386,0.161c0.085,0.128,0.084,0.292-0.001,0.419
			c-0.106,0.158-1.066,1.547-2.056,1.822C773.762,197.114,773.634,197.129,773.501,197.129z M772.43,196.061
			c0.456,0.221,0.944,0.378,1.252,0.294c0.323-0.09,0.69-0.406,1.002-0.737L772.43,196.061z"/>
	</g>
	<g>
		<path style="fill:#FFFFFF;" d="M776.382,207.615c-1.454,0-3.023-0.395-4.589-1.483c-0.171-0.119-0.213-0.354-0.095-0.524
			c0.119-0.171,0.354-0.212,0.524-0.095c5.172,3.594,10.29-1.004,10.506-1.201c0.153-0.14,0.393-0.131,0.532,0.023
			c0.141,0.153,0.131,0.392-0.023,0.532C783.197,204.904,780.189,207.615,776.382,207.615z"/>
	</g>
	<g>
		<path style="fill:#F98575;" d="M807.393,235.682c0,0,3.01,9.769-10.719,17.135c-13.728,7.366-30.926,4.347-30.926,4.347
			l-7.849-8.167l29.906-13.154L807.393,235.682z"/>
	</g>
	<g>
		<path style="fill:#FFB655;" d="M775.626,177.459c0,0,3.443,0.257,5.821,5.112c1.8,3.674,1.757,7.199,1.757,7.199l3.331-0.578
			c0,0,1.282-5.98-1.963-9.808C781.327,175.556,775.626,177.459,775.626,177.459z"/>
	</g>
	<g>
		<g>
			<path style="fill:#507849;" d="M774.142,276.565c-0.725,0-1.317-0.582-1.328-1.309c-0.013-0.808-0.514-19.805-18.931-21.06
				c-17.59-1.189-20.254,19.113-20.359,19.979c-0.088,0.728-0.756,1.249-1.479,1.158c-0.729-0.088-1.247-0.75-1.158-1.479
				c0.028-0.236,3.095-23.686,23.176-22.309c20.881,1.422,21.404,23.452,21.407,23.675c0.01,0.732-0.576,1.334-1.31,1.344
				C774.155,276.565,774.148,276.565,774.142,276.565z"/>
		</g>
		<g>
			<path style="fill:#EEECF1;" d="M785.876,323.648H720.06c-3.334,0-6.047-2.713-6.047-6.047v-39.74c0-0.24,0.195-0.435,0.436-0.435
				h77.04c0.24,0,0.436,0.195,0.436,0.435v39.74C791.924,320.935,789.211,323.648,785.876,323.648z M714.884,278.297v39.305
				c0,2.854,2.322,5.176,5.176,5.176h65.816c2.855,0,5.177-2.322,5.177-5.176v-39.305H714.884z"/>
		</g>
		<g>
			<g>
				<path style="fill:#B75542;" d="M727.808,304.662c0,0,13.014-11.214,31.428-6.645c18.414,4.569,17.13,17.596,17.13,17.596
					l-47.035-0.882L727.808,304.662z"/>
			</g>
			<g>
				<ellipse style="fill:#B75542;" cx="727.808" cy="307.81" rx="10.903" ry="7.802"/>
			</g>
			<g>
				<path style="fill:#B75542;" d="M717.47,305.342c0,0,3.52-9.173,4.558-9.443c1.038-0.271,2.907,5.233,2.907,5.233L717.47,305.342
					z"/>
			</g>
			<g>
				<path style="fill:#B75542;" d="M737.396,305.342c0,0-3.52-9.173-4.558-9.443c-1.038-0.271-2.907,5.233-2.907,5.233
					L737.396,305.342z"/>
			</g>
			<g>
				<path d="M725.293,308.569c0,0,1.94-0.052,1.94,0c0,0.273-0.667,0.976-0.964,0.976
					C725.817,309.545,725.293,308.569,725.293,308.569z"/>
			</g>
			<g>
				<path d="M733.663,301.608c-0.2,0-0.366-0.157-0.376-0.359c-0.046-0.961-0.257-2.119-0.528-2.459
					c-0.219,0.228-0.584,1.081-0.814,1.924c-0.055,0.201-0.256,0.318-0.462,0.265c-0.201-0.055-0.319-0.262-0.265-0.462
					c0.183-0.673,0.682-2.263,1.357-2.487c0.203-0.068,0.411-0.03,0.587,0.104c0.723,0.563,0.857,2.664,0.877,3.08
					c0.01,0.208-0.15,0.384-0.358,0.393C733.675,301.608,733.669,301.608,733.663,301.608z"/>
			</g>
			<g>
				<path d="M721.202,301.815c-0.226-0.011-0.386-0.186-0.376-0.395c0.019-0.416,0.154-2.518,0.877-3.08
					c0.176-0.135,0.384-0.171,0.587-0.105c0.676,0.225,1.175,1.815,1.357,2.488c0.055,0.2-0.064,0.407-0.265,0.462
					c-0.205,0.054-0.407-0.063-0.462-0.265c-0.229-0.842-0.596-1.696-0.814-1.924c-0.265,0.338-0.482,1.496-0.528,2.459
					C721.569,301.658,721.402,301.815,721.202,301.815z"/>
			</g>
			<g>
				<path style="fill:#B75542;" d="M750.693,322.421c-23.609-1.624-19.532-14.068-9.295-10.602c9.333,3.16,25.23,4.493,33.963,2.464
					C778.092,313.649,778.258,324.317,750.693,322.421z"/>
			</g>
			<g>
				<path d="M721.956,307.104c-0.208,0-0.377-0.169-0.377-0.377v-2.104c0-0.208,0.169-0.377,0.377-0.377s0.377,0.169,0.377,0.377
					v2.104C722.333,306.935,722.164,307.104,721.956,307.104z"/>
			</g>
			<g>
				<path d="M730.252,307.104c-0.208,0-0.377-0.169-0.377-0.377v-2.104c0-0.208,0.169-0.377,0.377-0.377s0.377,0.169,0.377,0.377
					v2.104C730.629,306.935,730.46,307.104,730.252,307.104z"/>
			</g>
		</g>
		<g>
			<path style="fill:#EEECF1;" d="M737.396,323.213h48.577c3.046,0,5.515-2.469,5.515-5.515v-38.43h-54.092V323.213z"/>
		</g>
		<g>
			<path style="fill:#EEECF1;" d="M731.267,323.458c-0.247-0.004-0.439-0.201-0.435-0.441l0.626-43.582
				c0.003-0.239,0.198-0.43,0.435-0.43c0.247,0.004,0.44,0.201,0.435,0.441l-0.626,43.582
				C731.7,323.268,731.505,323.458,731.267,323.458z"/>
		</g>
		<g>
			<path style="fill:#EEECF1;" d="M719.859,323.458c-0.247-0.004-0.439-0.201-0.435-0.441l0.625-43.582
				c0.003-0.239,0.197-0.43,0.435-0.43c0.247,0.004,0.44,0.201,0.436,0.441l-0.625,43.582
				C720.292,323.268,720.098,323.458,719.859,323.458z"/>
		</g>
		<g>
			<path style="fill:#EEECF1;" d="M737.396,291.138h-22.947c-0.24,0-0.436-0.195-0.436-0.436c0-0.24,0.195-0.435,0.436-0.435h22.947
				c0.24,0,0.435,0.195,0.435,0.435C737.831,290.942,737.636,291.138,737.396,291.138z"/>
		</g>
		<g>
			<path style="fill:#EEECF1;" d="M737.396,311.648h-22.947c-0.24,0-0.436-0.195-0.436-0.436s0.195-0.436,0.436-0.436h22.947
				c0.24,0,0.435,0.195,0.435,0.436S737.636,311.648,737.396,311.648z"/>
		</g>
		<g>
			<path style="fill:#5D8455;" d="M714.886,279.632h75.781c1.997,0,3.616-1.619,3.616-3.616c0-1.997-1.619-3.616-3.616-3.616
				h-75.781c-1.997,0-3.616,1.619-3.616,3.616C711.271,278.013,712.889,279.632,714.886,279.632z"/>
		</g>
		<g>
			<path style="fill:#FFFFFF;" d="M758.811,317.629c-0.206,0-0.374-0.165-0.377-0.371c-0.003-0.208,0.163-0.38,0.371-0.383
				l21.99-0.322c0.212,0,0.38,0.165,0.383,0.371c0.003,0.208-0.163,0.38-0.371,0.383l-21.99,0.322
				C758.815,317.629,758.813,317.629,758.811,317.629z"/>
		</g>
	</g>
	<g>
		<path style="fill:#F98575;" d="M762.77,247.663c0,0-10.498,0.894-11.901,1.897c-1.403,1.003-1.826,10.776-0.98,11.336
			c0.845,0.56,2.12-1.047,2.12-1.047s0.437,2.162,1.534,2.697c1.097,0.534,2.066-1.475,2.066-1.475s1.41,1.846,2.057,2.081
			c0.647,0.235,4.533-5.115,4.533-5.115s3.829,3.751,8.5-2.749C775.37,248.789,762.77,247.663,762.77,247.663z"/>
	</g>
	<g>
		<path d="M752.082,259.041c-0.248-0.025-0.397-0.212-0.374-0.419l0.695-6.244c0.023-0.206,0.198-0.361,0.416-0.332
			c0.206,0.023,0.355,0.209,0.332,0.416l-0.695,6.244C752.435,258.898,752.271,259.041,752.082,259.041z"/>
	</g>
	<g>
		<path d="M756.142,260.944c-0.024,0-0.049-0.003-0.074-0.008c-0.204-0.041-0.336-0.239-0.295-0.443l1.371-6.808
			c0.041-0.203,0.236-0.333,0.443-0.295c0.204,0.041,0.336,0.239,0.295,0.443l-1.371,6.808
			C756.475,260.82,756.318,260.944,756.142,260.944z"/>
	</g>
	<g>
		<path style="fill:#FFFFFF;" d="M786.785,236.059c-0.017,0-0.034-0.001-0.051-0.004c-0.159-0.021-0.287-0.142-0.318-0.3
			c-0.131-0.659-1.233-6.485,0.243-7.966c0.319-0.319,0.738-0.439,1.214-0.349c0.477,0.094,0.84,0.371,1.052,0.802
			c0.971,1.98-1.517,7.038-1.803,7.608C787.058,235.98,786.926,236.059,786.785,236.059z M787.568,228.163
			c-0.149,0-0.269,0.052-0.375,0.158c-0.763,0.765-0.593,3.787-0.242,6.114c0.807-1.834,1.851-4.731,1.297-5.861
			c-0.108-0.221-0.273-0.346-0.52-0.394C787.672,228.169,787.618,228.163,787.568,228.163z"/>
	</g>
</g>
</svg>
